<?xml version="1.0" standalone="no"?>
<!DOCTYPE svg PUBLIC "-//W3C//DTD SVG 20010904//EN"
 "http://www.w3.org/TR/2001/REC-SVG-20010904/DTD/svg10.dtd">
<svg version="1.0" xmlns="http://www.w3.org/2000/svg"
 width="288.000000pt" height="288.000000pt" viewBox="0 0 288.000000 288.000000"
 preserveAspectRatio="xMidYMid meet">
<metadata>
Created by potrace 1.11, written by Peter Selinger 2001-2013
</metadata>
<g transform="translate(0.000000,288.000000) scale(0.100000,-0.100000)"
fill="#000000" stroke="none">
<path d="M1235 2865 c-319 -49 -585 -183 -810 -409 -191 -192 -312 -401 -376
-650 -43 -166 -48 -226 -44 -531 2 -159 6 -301 9 -315 3 -14 7 -63 11 -110 9
-137 33 -315 62 -465 33 -169 108 -253 258 -288 73 -17 214 -41 300 -52 28 -3
68 -8 90 -10 169 -21 345 -29 605 -30 265 0 308 4 448 39 359 91 663 309 864
621 95 147 159 305 200 492 29 136 33 378 7 518 -57 319 -198 588 -416 795
-221 212 -446 326 -766 391 -77 16 -349 18 -442 4z m-555 -1040 c90 -30 167
-119 188 -220 20 -94 -12 -213 -76 -282 -136 -146 -348 -108 -441 78 -27 54
-30 69 -28 142 2 62 8 94 25 130 62 130 203 195 332 152z m1719 -15 c52 -26
105 -81 133 -139 17 -35 23 -66 25 -127 2 -71 -2 -89 -26 -140 -30 -64 -92
-127 -150 -152 -55 -23 -157 -20 -208 6 -129 67 -195 219 -157 364 23 91 95
172 178 202 53 20 152 14 205 -14z m-869 -1 c68 -17 152 -82 193 -146 103
-163 73 -385 -70 -512 -226 -202 -563 -24 -563 297 0 108 34 194 107 269 92
93 207 125 333 92z m-755 -717 c104 -22 237 -78 248 -105 8 -22 -4 -33 -75
-65 -170 -77 -299 -199 -340 -322 -21 -64 -20 -152 4 -228 18 -60 18 -65 3
-82 -9 -10 -24 -17 -33 -15 -10 1 -42 6 -72 9 -186 23 -191 29 -229 257 -50
299 -62 446 -39 481 18 27 97 58 188 73 78 13 275 11 345 -3z m1660 3 c69 -11
124 -40 136 -73 8 -22 6 -38 -12 -82 -21 -52 -85 -169 -98 -180 -3 -3 -17 -21
-30 -40 -59 -84 -106 -130 -133 -130 -22 0 -32 10 -62 64 -61 110 -155 191
-304 266 -68 34 -79 43 -75 60 10 37 141 92 283 118 54 10 226 8 295 -3z
m-845 -199 c125 -20 297 -88 394 -155 97 -68 166 -165 166 -234 0 -32 -7 -45
-47 -85 -123 -122 -435 -210 -733 -206 -133 2 -400 14 -439 20 -124 20 -201
107 -207 238 -3 60 0 76 23 119 70 127 298 262 498 294 17 3 48 8 70 12 48 9
212 7 275 -3z"/>
</g>
</svg>
