<?xml version="1.0" standalone="no"?>
<!DOCTYPE svg PUBLIC "-//W3C//DTD SVG 1.1//EN" "http://www.w3.org/Graphics/SVG/1.1/DTD/svg11.dtd" >
<svg xmlns="http://www.w3.org/2000/svg">
<metadata>Generated by IcoMoon</metadata>
<defs>
<font id="b2b-connect-icons" horiz-adv-x="1024">
<font-face units-per-em="1024" ascent="960" descent="-64" />
<missing-glyph horiz-adv-x="1024" />
<glyph unicode="&#x20;" horiz-adv-x="512" d="" />
<glyph unicode="&#xe900;" glyph-name="xmark" d="M19.924 53.695l394.1 394.708-394.1 393.794c-12.32 12.595-19.935 29.854-19.935 48.891s7.603 36.296 19.938 48.907l-0.015-0.016c26.207 26.925 70.856 26.109 97.781 0l394-394.708 394.818 394.818c12.451 12.304 29.586 19.897 48.479 19.897s36.024-7.593 48.485-19.906l-0.009 0.009c12.67-12.446 20.517-29.746 20.517-48.891s-7.848-36.446-20.511-48.879l-394-393.904 394-394.708c12.67-12.446 20.517-29.746 20.517-48.891s-7.848-36.446-20.511-48.879l-0.012-0.012c-12.451-12.304-29.586-19.897-48.479-19.897s-36.024 7.593-48.485 19.906l-394.81 394.81-393.892-394.818c-26.925-26.109-71.576-26.925-97.781 0-12.32 12.595-19.935 29.854-19.935 48.891s7.603 36.296 19.938 48.907l-0.015-0.016z" />
<glyph unicode="&#xe901;" glyph-name="doc" d="M258.39-63.996c-98.424 0-148.064 49.635-148.064 149.472v724.564c0 99.346 49.697 149.963 148.064 149.963h226.866c53.984 0 83.566-8.132 119.826-45.358l263.67-267.947c38.209-39.131 44.934-65.899 44.934-127.519v-433.69c0-99.346-49.213-149.472-148.064-149.472h-507.231zM262.24 12.906h499.527c49.697 0 75.012 26.284 75.012 73.97v428.973h-272.224c-59.233 0-89.81 29.654-89.81 89.81v277.424h-212.069c-49.635 0-75.436-27.206-75.436-74.528v-721.631c0-47.806 25.8-74.029 75.012-74.029zM573.1 587.936h248.812l-275.104 280.355v-253.648c0-19.074 7.708-26.72 26.284-26.72z" />
<glyph unicode="&#xe902;" glyph-name="bolt" d="M687.071 864.949c1.966 6.341 3.105 13.629 3.105 21.182 0 40.801-33.070 73.87-73.87 73.87-23.469 0-44.383-10.947-57.915-28.010l-0.117-0.157-375.521-476.781c-11.685-14.715-18.751-33.566-18.751-54.055 0-48.216 39.082-87.298 87.298-87.298 0.006 0 0.011 0 0.018 0h170.432l-84.816-282.648c-1.966-6.341-3.105-13.629-3.105-21.182 0-40.799 33.070-73.87 73.87-73.87 23.469 0 44.383 10.947 57.915 28.010l0.117 0.157 375.521 476.781c11.685 14.715 18.751 33.566 18.751 54.055 0 48.216-39.082 87.298-87.298 87.298-0.006 0-0.011 0-0.018 0h-170.432l84.816 282.648zM413.022 5.663c-1.241-1.631-3.176-2.673-5.362-2.673-3.709 0-6.714 3.006-6.714 6.714 0 0.735 0.119 1.449 0.344 2.118l-0.016-0.045 97.771 325.824c0.903 2.896 1.425 6.223 1.425 9.671 0 18.542-15.032 33.573-33.573 33.573-0.005 0-0.009 0-0.015 0h-215.559c-0.015 0-0.031 0-0.039 0-11.125 0-20.144 9.018-20.144 20.144 0 4.736 1.633 9.093 4.374 12.529l-0.033-0.038 375.521 476.781c1.242 1.605 3.169 2.627 5.329 2.627 3.709 0 6.714-3.006 6.714-6.714 0-0.697-0.103-1.374-0.302-2.006l0.015 0.045-97.771-325.824c-0.903-2.896-1.425-6.223-1.425-9.671 0-18.542 15.032-33.573 33.573-33.573 0.005 0 0.009 0 0.015 0h215.559c0.015 0 0.033 0 0.039 0 11.125 0 20.144-9.018 20.144-20.144 0-4.736-1.631-9.093-4.374-12.529l0.033 0.038-375.521-476.781z" />
<glyph unicode="&#xe903;" glyph-name="schedule" d="M511.488 960c-282.624 0-511.488-229.376-511.488-512s228.864-512 511.488-512c283.136 0 512.512 229.376 512.512 512s-229.376 512-512.512 512zM512 38.4c-0.033 0-0.087 0-0.128 0-226.145 0-409.472 183.327-409.472 409.472 0 0.041 0 0.095 0 0.136v-0.008c0 226.304 183.296 409.6 409.6 409.6s409.6-183.296 409.6-409.6c0-226.304-183.296-409.6-409.6-409.6zM500.736 704h-3.072c-0.033 0-0.087 0-0.128 0-20.289 0-36.736-16.447-36.736-36.736 0-0.041 0-0.095 0-0.136v0.008-241.664c0-17.92 9.216-34.816 25.088-44.032l212.48-127.488c5.407-3.339 11.946-5.314 18.963-5.314 13.168 0 24.714 6.981 31.129 17.439l0.097 0.161c3.425 5.445 5.462 12.063 5.462 19.164 0 13.413-7.265 25.135-18.079 31.438l-0.169 0.097-198.144 117.76v232.448c0 0.033 0 0.087 0 0.128 0 20.289-16.447 36.736-36.736 36.736-0.041 0-0.095 0-0.136 0h0.008z" />
<glyph unicode="&#xe904;" glyph-name="news" d="M256 260.265h716.805c28.278 0 51.195-22.922 51.195-51.195s-22.922-51.195-51.195-51.195v0h-716.805c-28.278 0-51.195 22.922-51.195 51.195s22.922 51.195 51.195 51.195v0zM256 55.467h716.805c28.278 0 51.195-22.922 51.195-51.195s-22.922-51.195-51.195-51.195v0h-716.805c-28.278 0-51.195 22.922-51.195 51.195s22.922 51.195 51.195 51.195v0zM51.195 157.869c-28.278 0-51.195 22.922-51.195 51.195s22.922 51.195 51.195 51.195v0c28.278 0 51.195-22.922 51.195-51.195s-22.922-51.195-51.195-51.195v0zM51.195-46.936c-28.278 0-51.195 22.922-51.195 51.195s22.922 51.195 51.195 51.195v0c28.278 0 51.195-22.922 51.195-51.195s-22.922-51.195-51.195-51.195v0zM136.532 942.935h750.935c75.403 0 136.532-61.129 136.532-136.532v0-307.201c0-75.403-61.129-136.532-136.532-136.532v0h-750.935c-75.403 0-136.532 61.129-136.532 136.532v0 307.201c0 75.403 61.129 136.532 136.532 136.532v0zM136.532 840.532c-18.847 0-34.129-15.282-34.129-34.129v0-307.201c0-18.847 15.282-34.129 34.129-34.129v0h750.935c18.847 0 34.129 15.282 34.129 34.129v0 307.201c0 18.847-15.282 34.129-34.129 34.129v0h-750.935z" />
<glyph unicode="&#xe905;" glyph-name="editor" d="M542.323 758.495h-353.252c-41.465 0-75.116-33.651-75.116-75.186v-569.37c0-41.535 33.581-75.116 75.116-75.116h569.439c41.465 0 75.116 33.581 75.116 75.116v353.252c0 28.384 23.008 51.409 51.409 51.409s51.409-23.008 51.409-51.409v0-353.252c0-98.272-79.657-177.933-177.933-177.933v0h-569.439c-98.272 0-177.933 79.657-177.933 177.933v0 569.37c0 0.025 0 0.039 0 0.070 0 98.272 79.657 177.933 177.933 177.933h353.252c28.384 0 51.409-23.008 51.409-51.409s-23.008-51.409-51.409-51.409v0zM428.55 442.177c3.559 7.777 8.219 14.424 13.855 20.083l379.849 379.78c9.157 8.544 21.482 13.792 35.040 13.792 28.384 0 51.409-23.008 51.409-51.409 0-13.554-5.249-25.888-13.824-35.075l-379.68-379.888c-5.675-5.665-12.348-10.336-19.729-13.732l-0.419-0.172-97.056-44.065c-1.231-0.556-2.659-0.885-4.181-0.885-5.673 0-10.275 4.602-10.275 10.275 0 1.506 0.329 2.949 0.916 4.245l-0.033-0.064 44.065 97.056zM997.851 872.272c-9.264-9.277-22.075-15.010-36.223-15.010s-26.96 5.734-36.223 15.010v0l-0.279 0.279c-9.267 9.267-15.008 22.077-15.008 36.223 0 28.294 22.942 51.232 51.232 51.232 14.146 0 26.956-5.729 36.223-15.008l0.279-0.279c9.277-9.264 15.010-22.075 15.010-36.223s-5.734-26.96-15.010-36.223v0z" />
<glyph unicode="&#xe906;" glyph-name="plus" d="M448 544v352c0 35.35 28.65 64 64 64s64-28.65 64-64v0-352c0-17.664 14.336-32 32-32h352c35.35 0 64-28.65 64-64s-28.65-64-64-64v0h-352c-17.675 0-32-14.325-32-32v0-352c0-35.35-28.65-64-64-64s-64 28.65-64 64v0 352c0 17.675-14.325 32-32 32v0h-352c-35.35 0-64 28.65-64 64s28.65 64 64 64v0h352c17.498 0 32 14.502 32 32z" />
<glyph unicode="&#xe907;" glyph-name="calendar" d="M853.344 846.231h56.888c62.836 0 113.776-50.94 113.776-113.776v0-682.669c0-62.836-50.94-113.776-113.776-113.776v0h-796.449c-62.836 0-113.776 50.94-113.776 113.776v0 682.669c0 62.836 50.94 113.776 113.776 113.776v0h56.888v56.888c0 31.418 25.47 56.888 56.888 56.888s56.888-25.47 56.888-56.888v0-56.888h455.119v56.888c0 31.418 25.47 56.888 56.888 56.888s56.888-25.47 56.888-56.888v0-56.888zM113.769 704.004v-625.781c0-15.712 12.735-28.448 28.448-28.448v0h739.557c15.712 0 28.448 12.735 28.448 28.448v0 625.781c0 15.712-12.735 28.448-28.448 28.448v0h-739.557c-15.712 0-28.448-12.735-28.448-28.448v0zM255.996 561.776h56.888c15.712 0 28.448-12.735 28.448-28.448v0-56.888c0-15.712-12.735-28.448-28.448-28.448v0h-56.888c-15.712 0-28.448 12.735-28.448 28.448v0 56.888c0 15.712 12.735 28.448 28.448 28.448v0zM255.996 334.226h56.888c15.712 0 28.448-12.735 28.448-28.448v0-56.888c0-15.712-12.735-28.448-28.448-28.448v0h-56.888c-15.712 0-28.448 12.735-28.448 28.448v0 56.888c0 15.712 12.735 28.448 28.448 28.448v0zM483.552 561.776h56.888c15.712 0 28.448-12.735 28.448-28.448v0-56.888c0-15.712-12.735-28.448-28.448-28.448v0h-56.888c-15.712 0-28.448 12.735-28.448 28.448v0 56.888c0 15.712 12.735 28.448 28.448 28.448v0zM483.552 334.226h56.888c15.712 0 28.448-12.735 28.448-28.448v0-56.888c0-15.712-12.735-28.448-28.448-28.448v0h-56.888c-15.712 0-28.448 12.735-28.448 28.448v0 56.888c0 15.712 12.735 28.448 28.448 28.448v0zM711.116 334.226h56.888c15.712 0 28.448-12.735 28.448-28.448v0-56.888c0-15.712-12.735-28.448-28.448-28.448v0h-56.888c-15.712 0-28.448 12.735-28.448 28.448v0 56.888c0 15.712 12.735 28.448 28.448 28.448v0zM711.116 561.776h56.888c15.712 0 28.448-12.735 28.448-28.448v0-56.888c0-15.712-12.735-28.448-28.448-28.448v0h-56.888c-15.712 0-28.448 12.735-28.448 28.448v0 56.888c0 15.712 12.735 28.448 28.448 28.448v0z" />
<glyph unicode="&#xe908;" glyph-name="angle-down" d="M987.49 532.689c22.325 17.758 36.51 44.921 36.51 75.405 0 53.083-43.027 96.115-96.115 96.115-22.603 0-43.384-7.799-59.801-20.866l0.197 0.147-356.941-282.225-356.513 281.366c-16.062 12.515-36.527 20.064-58.763 20.064-53.051 0-96.065-43.011-96.065-96.065 0-30.152 13.884-57.054 35.614-74.669l0.177-0.145c207.075-165.831 324.661-258.482 352.498-278.207 41.842-29.545 74.032-61.993 122.708-61.826 49.272-0.175 76.338 24.421 123.308 61.826 31.337 25.023 149.097 118.011 353.183 279.060z" />
<glyph unicode="&#xe909;" glyph-name="angle-up" d="M36.513 363.312c-22.326-17.758-36.51-44.921-36.51-75.407 0-53.084 43.028-96.117 96.117-96.117 22.604 0 43.384 7.8 59.803 20.866l-0.196-0.146 356.94 282.223 356.51-281.365c16.062-12.515 36.528-20.065 58.762-20.065 53.053 0 96.064 43.010 96.064 96.064 0 30.151-13.884 57.054-35.613 74.67l-0.177 0.145c-207.074 165.75-324.572 258.48-352.496 278.206-41.843 29.545-74.030 61.991-122.708 61.826-49.273 0.174-76.337-24.421-123.309-61.826-31.337-25.024-149.097-118.009-353.179-279.060z" />
<glyph unicode="&#xe90a;" glyph-name="angle-left" d="M596.674-27.509c17.738-22.31 44.88-36.498 75.329-36.498 53.018 0 95.989 42.977 95.989 95.989 0 22.56-7.778 43.301-20.815 59.689l0.155-0.198-281.975 356.781 281.12 356.215c12.874 16.192 20.647 36.937 20.647 59.491 0 53.031-42.99 96.032-96.032 96.032-30.477 0-57.632-14.193-75.231-36.332l-0.155-0.198c-165.453-206.98-258.18-324.359-277.802-352.331-29.673-41.816-62.107-73.862-61.918-122.593-0.19-49.207 24.364-76.232 61.818-123.256 24.932-31.287 117.856-148.857 278.847-352.801z" />
<glyph unicode="&#xe90b;" glyph-name="angle-right" d="M427.37-27.51c-17.738-22.31-44.88-36.499-75.329-36.499-53.018 0-95.989 42.976-95.989 95.989 0 22.56 7.778 43.301 20.815 59.689l-0.156-0.198 281.975 356.782-281.12 356.215c-12.874 16.192-20.647 36.937-20.647 59.491 0 53.030 42.989 96.032 96.032 96.032 30.478 0 57.632-14.193 75.231-36.332l0.156-0.198c165.454-206.981 258.18-324.36 277.802-352.332 29.585-41.817 62.007-73.953 61.818-122.592 0.19-49.207-24.364-76.232-61.818-123.256-24.931-31.287-117.856-148.857-278.848-352.802z" />
<glyph unicode="&#xe90c;" glyph-name="news-archive" d="M935.998 634.403v-486.398c0-92.783-75.214-167.997-167.997-167.997v0h-512c-92.783 0-167.997 75.214-167.997 167.997v0 486.398c-51.537 17.33-88.003 65.198-88.003 121.592 0 0.005 0 0.010 0 0.013v-0.001 32c0 70.697 57.303 128 128 128v0h768c70.697 0 128-57.303 128-128v0-32c0-0.004 0-0.008 0-0.012 0-56.388-36.466-104.264-87.096-121.325l-0.907-0.263zM856.004 627.998h-687.995v-480c0-48.643 39.423-88.003 88.003-88.003h512c48.643 0 88.003 39.423 88.003 88.003v480zM128 819.998c-17.674 0-32-14.326-32-32v0-32c0-17.674 14.326-32 32-32v0h768c17.674 0 32 14.326 32 32v0 32c0 17.674-14.326 32-32 32v0h-768zM352.001 499.998h320c17.674 0 32-14.326 32-32v0-32c0-17.674-14.326-32-32-32v0h-320c-17.674 0-32 14.326-32 32v0 32c0 17.674 14.326 32 32 32v0zM640.001 435.998c0 5.821 1.539 11.261 4.292 16-2.696 4.582-4.292 10.091-4.292 15.967 0 0.013 0 0.028 0 0.030v-32.002z" />
<glyph unicode="&#xe90d;" glyph-name="delete" d="M834.661 44.080c-3.229-65.917-47.208-108.081-112.717-108.081h-420.131c-65.975 0-109.49 41.635-112.717 107.675l-31.667 670.312h-45.741c-18.844 0.289-34.040 15.469-34.365 34.273v0.031c0 18.768 16.011 34.837 34.366 34.837h199.273v68.732c0 65.504 43.986 108.139 114.531 108.139h171.36c70.553 0 115.003-42.637 115.003-108.139v-68.732h200.218c19.106 0 34.597-15.491 34.597-34.597s-15.491-34.597-34.597-34.597h-45.798l-31.667-669.79zM384.27 847.343v-64.16h254.753v64.096c0 26.095-19.233 44.45-47.208 44.45h-160.801c-27.503 0-46.743-18.355-46.743-44.45zM308.676 4.731h406.413c26.976 0 46.271 19.704 47.621 46.743l30.26 662.514h-564.051l32.081-662.514c1.348-26.568 21.053-46.743 47.621-46.743zM589.057 85.367c-15.54 0-26.976 13.255-26.568 29.792l13.726 484.235c0.472 16.541 12.378 29.792 26.625 29.792 15.54 0 27.445-12.842 26.976-30.201l-13.726-483.821c-0.472-17.419-11.904-29.792-26.976-29.792zM434.648 85.367c-15.072 0-26.095 12.319-26.568 29.792l-14.19 483.821c-0.472 17.361 11.027 30.201 26.568 30.201 14.19 0 26.568-13.255 27.040-29.792l13.785-484.235c0.413-16.541-11.027-29.792-26.625-29.792z" />
<glyph unicode="&#xe90e;" glyph-name="repub" d="M529.378 484.841c-0.527-0.032-1.139-0.040-1.76-0.040-10.143 0-19.296 4.214-25.808 10.985l-0.014 0.014-195.892 196.868c-7.328 6.794-11.894 16.471-11.894 27.214 0 0.474 0.010 0.937 0.030 1.406l-0.002-0.067c0.080 11.123 4.597 21.179 11.872 28.493l-0.002-0.002 196.013 198.88c6.454 7.024 15.686 11.416 25.943 11.416 0.511 0 1.019-0.013 1.523-0.032l-0.073 0.002c21.426 0 37.558-17.169 37.558-39.018 0-9.984-3.774-19.482-10.407-27.093l-126.985-124.611c24.64 4.68 53.062 7.443 82.095 7.608l0.145 0.001c0.432 0.002 0.946 0.002 1.462 0.002 231.375 0 418.936-187.562 418.936-418.936 0-0.362 0-0.734-0.001-1.095v0.056c0.002-0.432 0.002-0.946 0.002-1.461 0-231.645-187.784-419.424-419.424-419.424-0.346 0-0.685 0-1.030 0.001h0.053c-0.233 0-0.517-0.001-0.799-0.001-231.442 0-419.057 187.616-419.057 419.057 0 0.642 0.001 1.285 0.005 1.927v-0.096c0 22.825 16.133 39.511 39.45 39.511 22.342 0 37.135-16.677 37.135-39.511-0.003-0.526-0.005-1.144-0.005-1.763 0-189.179 153.363-342.542 342.542-342.542 0.283 0 0.558 0 0.841 0.001h-0.041c0.288-0.001 0.632-0.001 0.979-0.001 189.381 0 342.904 153.523 342.904 342.904 0 0.49-0.001 0.99-0.003 1.479v-0.078c0.001 0.274 0.001 0.597 0.001 0.919 0 189.112-153.309 342.421-342.421 342.421-0.515 0-1.029-0.001-1.543-0.003h0.081c-36.159 0-69.4-2.798-98.011-9.008l142.261-141.226c7.125-7.608 10.959-17.109 10.959-27.093 0-21.919-16.192-38.048-37.618-38.048z" />
<glyph unicode="&#xe90f;" glyph-name="search" d="M419.083 131.485c-228.44 0-414.258 186.447-414.258 414.258 0 227.88 185.826 414.258 414.258 414.258 227.81 0 414.258-186.378 414.258-414.258 0-94.254-31.782-180.999-85.153-250.978l253.737-254.297c10.657-10.721 17.249-25.502 17.249-41.818 0-0.45-0.006-0.901-0.018-1.349l0.001 0.068c0-34.47-25.313-61.364-60.328-61.364-0.182-0.002-0.405-0.004-0.613-0.004-16.79 0-31.988 6.766-43.036 17.727l-255.326 255.39c-66.817-48.39-150.389-77.448-240.744-77.571h-0.033zM419.083 220.905c177.762 0 324.766 147.075 324.766 324.83s-147.005 324.83-324.766 324.83c-178.311 0-324.83-147.075-324.83-324.766 0-177.826 146.53-324.894 324.766-324.894z" />
<glyph unicode="&#xe910;" glyph-name="add" d="M512 960c282.773 0 512-229.226 512-512s-229.226-512-512-512v0c-282.773 0-512 229.226-512 512s229.226 512 512 512v0zM512 874.662c-235.639 0-426.662-191.022-426.662-426.662s191.022-426.662 426.662-426.662v0c235.639 0 426.662 191.022 426.662 426.662s-191.022 426.662-426.662 426.662v0zM511.543 749.344c21.519-0.001 39.317-15.927 42.242-36.64l0.032-0.224 0.401-5.797v-213.338h213.338c21.519-0.001 39.317-15.927 42.242-36.64l0.032-0.224 0.401-5.797c0-23.567-19.104-42.662-42.662-42.662v0h-213.338v-213.338c-0.009-23.561-19.104-42.656-42.662-42.656-21.515 0-39.31 15.919-42.242 36.629l-0.032 0.224-0.401 5.797v213.338h-213.338c-21.519 0.001-39.317 15.927-42.242 36.64l-0.032 0.224-0.401 5.797c0 23.567 19.104 42.662 42.662 42.662v0h213.338v213.338c0 23.567 19.104 42.662 42.662 42.662v0z" />
<glyph unicode="&#xe911;" glyph-name="star" d="M547.137 933.597l121.755-326.396c5.483-14.379 19.159-24.411 35.167-24.425h282.36c20.756 0 37.581-16.823 37.581-37.581 0-12.252-5.862-23.131-14.94-29.997l-0.096-0.070-242.221-182.253c-9.143-6.926-14.98-17.796-14.98-30.022 0-4.853 0.925-9.485 2.589-13.742l-0.093 0.255 115.134-300.317c1.607-4.026 2.533-8.692 2.533-13.566 0-20.756-16.823-37.581-37.581-37.581-8.522 0-16.39 2.838-22.695 7.62l0.096-0.069-277.169 207.957c-6.205 4.687-14.047 7.513-22.542 7.513s-16.349-2.827-22.642-7.583l0.096 0.070-276.267-207.957c-6.217-4.731-14.088-7.574-22.625-7.574-20.756 0-37.581 16.823-37.581 37.581 0 4.828 0.914 9.452 2.577 13.69l-0.093-0.256 114.384 300.471c1.562 3.972 2.456 8.57 2.456 13.371 0 12.211-5.827 23.055-14.841 29.927l-0.096 0.069-242.376 182.402c-9.165 6.925-15.029 17.815-15.029 30.066 0 20.756 16.823 37.581 37.581 37.581h281.303c16.001 0 29.67 9.999 35.088 24.091l0.091 0.257 122.654 326.628c5.502 14.366 19.168 24.379 35.178 24.379 16.066 0 29.779-10.086 35.156-24.263l0.090-0.26z" />
<glyph unicode="&#xe912;" glyph-name="profile" d="M512 960c282.771 0 512-229.227 512-512s-229.227-512-512-512v0c-282.771 0-512 229.227-512 512s229.227 512 512 512v0zM512 206.225c-95.576 0-184.832-37.832-250.712-103.424 69.158-50.907 156.031-81.465 250.037-81.465 0.233 0 0.475 0 0.709 0.001h-0.030c93.696 0 180.335 30.152 250.712 81.352-64.038 63.97-152.482 103.536-250.151 103.536-0.195 0-0.392 0-0.586 0h0.030zM512 874.664c-0.006 0-0.014 0-0.021 0-235.64 0-426.664-191.023-426.664-426.664 0-111.326 42.642-212.702 112.478-288.674l-0.281 0.304c79.851 81.477 191.045 131.984 314.027 131.984 0.158 0 0.318 0 0.482 0h-0.027c0.13 0 0.29 0 0.434 0 122.974 0 234.169-50.48 313.975-131.857l0.071-0.072c69.538 75.661 112.154 177.006 112.154 288.312 0 235.626-191.006 426.65-426.632 426.664h-0.001zM512 775.112c117.821 0 213.336-95.517 213.336-213.336s-95.517-213.336-213.336-213.336v0c-117.821 0-213.336 95.517-213.336 213.336s95.517 213.336 213.336 213.336v0zM512 689.776c-70.686 0-128-57.314-128-128s57.314-128 128-128v0c70.686 0 128 57.314 128 128s-57.314 128-128 128v0z" />
<glyph unicode="&#xe913;" glyph-name="question" d="M512 960c282.782 0 512-229.218 512-512s-229.218-512-512-512-512 229.218-512 512 229.218 512 512 512zM499.2 256c-35.349 0-64-28.651-64-64s28.651-64 64-64v0c35.349 0 64 28.651 64 64s-28.651 64-64 64v0zM512 736c-106.038 0-192-85.962-192-192v0h96c0 0.078 0 0.162 0 0.256 0 52.88 42.864 95.744 95.744 95.744 0.094 0 0.178 0 0.272 0h-0.016c53.023 0 96-42.977 96-96s-42.977-96-96-96v0h-12.8c-28.275 0-51.2-22.925-51.2-51.2v0-60.83c0-26.512 21.488-48 48-48s48 21.488 48 48v18.688c91.19 16.069 159.584 94.688 159.584 189.283 0 105.901-85.721 191.782-191.56 192.049h-0.029z" />
<glyph unicode="&#xe914;" glyph-name="group" d="M703.165 448.535c-88.41 0-159.581 77.431-159.949 172.71-0.368 93.835 71.956 170.094 159.9 170.094 88.312 0 159.9-75.182 159.9-169.387 0-95.598-71.539-173.366-159.9-173.366zM279.674 440.123c-76.675 0-138.776 67.945-139.116 152.292-0.368 81.394 62.809 148.922 139.116 148.922 77.014 0 139.436-66.452 139.436-148.601 0-84.301-62.423-152.565-139.436-152.565zM703.116 512.459c50.751 0 93.079 48.131 93.079 109.485 0 59.902-41.956 105.513-93.079 105.513-50.751 0-93.452-46.356-93.079-105.841 0-61.685 42.713-109.16 93.079-109.16zM279.674 503.298c41.588 0 76.63 39.437 76.63 89.436 0 47.848-34.302 85.793-76.63 85.793-41.264 0-76.306-38.689-76.306-86.113 0-49.676 35.043-89.117 76.306-89.117zM78.874 104.715c-52.567 0-78.874 22.248-78.874 66.029 0 121.219 125.23 231.439 279.671 231.439 41.22 0 83.031-8.132 120.608-23.545 1.772-0.726 3.231-1.441 4.632-2.252l-0.194 0.107c8.734-4.999 14.529-14.26 14.529-24.871 0-7.557-2.939-14.429-7.728-19.535l0.022 0.022c-6.93-7.408-16.76-12.039-27.677-12.039-5.215 0-10.194 1.052-14.717 2.971l0.244-0.096c-26.602 10.604-57.437 16.769-89.697 16.821h-0.022c-116.112 0-213.966-79.582-213.966-163.175 0-6.211 2.939-9.486 9.854-9.486h220.704c17.232 0 31.22-13.969 31.22-31.22s-13.969-31.22-31.22-31.22h-217.38zM475.32 104.715c-63.128 0-93.452 20.048-93.452 63.080 0 100.463 125.23 234.008 320.875 234.008 195.694 0 321.257-133.592 321.257-233.965 0-43.081-30.659-63.178-93.452-63.178h-455.224zM464.004 168.542h477.84c8.779 0 12.054 2.939 12.054 9.486 0 55.891-90.512 159.9-251.167 159.9-160.608 0-250.788-104.010-250.788-159.9 0-6.544 3.276-9.486 12.054-9.486z" />
<glyph unicode="&#xe915;" glyph-name="more" d="M109.946 338.207c-0.059 0-0.128 0-0.198 0-30.237 0-57.614 12.235-77.452 32.025l0.003-0.003c-13.113 12.952-22.898 29.247-27.97 47.502l-0.179 0.754c-2.634 8.945-4.152 19.221-4.152 29.856 0 60.448 49.002 109.453 109.453 109.453 10.588 0 20.826-1.503 30.515-4.309l-0.775 0.192c19.042-5.226 35.377-14.957 48.398-28.003l0.001-0.001c13.198-12.921 23.001-29.266 27.977-47.589l0.172-0.737c2.539-8.79 4.001-18.882 4.001-29.321s-1.462-20.531-4.189-30.090l0.186 0.773c-7.994-28.091-26.055-51.077-49.941-65.305l-0.507-0.281c-7.541-4.412-16.256-8.152-25.441-10.77l-0.804-0.198c-9.284-2.631-19.011-3.946-29.102-3.946zM512.075 338.207c-0.059 0-0.128 0-0.198 0-30.237 0-57.614 12.235-77.452 32.025l0.003-0.003c-13.113 12.952-22.898 29.247-27.97 47.502l-0.179 0.754c-2.634 8.945-4.152 19.221-4.152 29.856 0 60.448 49.002 109.453 109.453 109.453 10.588 0 20.826-1.503 30.515-4.309l-0.775 0.192c19.042-5.226 35.377-14.957 48.398-28.003l0.001-0.001c13.198-12.921 23.001-29.266 27.977-47.589l0.172-0.737c2.539-8.79 4.001-18.882 4.001-29.321s-1.462-20.531-4.189-30.090l0.186 0.773c-7.994-28.091-26.055-51.077-49.941-65.305l-0.507-0.281c-7.541-4.412-16.256-8.152-25.441-10.77l-0.804-0.198c-9.284-2.631-19.011-3.946-29.102-3.946zM914.203 338.207c-0.059 0-0.128 0-0.198 0-30.237 0-57.614 12.235-77.452 32.025l0.003-0.003c-13.113 12.952-22.898 29.247-27.97 47.502l-0.179 0.754c-2.634 8.945-4.152 19.221-4.152 29.856 0 60.448 49.002 109.453 109.453 109.453 10.588 0 20.826-1.503 30.515-4.309l-0.775 0.192c19.042-5.226 35.377-14.957 48.398-28.003l0.001-0.001c13.198-12.921 23.001-29.266 27.977-47.589l0.172-0.737c2.539-8.79 4.001-18.882 4.001-29.321s-1.462-20.531-4.189-30.090l0.186 0.773c-7.994-28.091-26.055-51.077-49.941-65.305l-0.507-0.281c-7.541-4.412-16.256-8.152-25.441-10.77l-0.804-0.198c-9.284-2.631-19.011-3.946-29.102-3.946z" />
<glyph unicode="&#xe916;" glyph-name="round-list" d="M56.89 263.111c31.419 0 56.889-25.47 56.889-56.889s-25.47-56.889-56.889-56.889v0c-31.419 0-56.889 25.47-56.889 56.889s25.47 56.889 56.889 56.889v0zM981.333 248.889c23.564 0 42.667-19.103 42.667-42.667s-19.103-42.667-42.667-42.667v0h-711.112c-23.564 0-42.667 19.103-42.667 42.667s19.103 42.667 42.667 42.667v0h711.112zM56.89 504.889c31.419 0 56.889-25.47 56.889-56.889s-25.47-56.889-56.889-56.889v0c-31.419 0-56.889 25.47-56.889 56.889s25.47 56.889 56.889 56.889v0zM981.333 490.667c23.564 0 42.667-19.103 42.667-42.667s-19.103-42.667-42.667-42.667v0h-711.112c-23.564 0-42.667 19.103-42.667 42.667s19.103 42.667 42.667 42.667v0h711.112zM56.89 746.667c31.419 0 56.889-25.47 56.889-56.889s-25.47-56.889-56.889-56.889v0c-31.419 0-56.889 25.47-56.889 56.889s25.47 56.889 56.889 56.889v0zM981.333 732.445c23.564 0 42.667-19.103 42.667-42.667s-19.103-42.667-42.667-42.667v0h-711.112c-23.564 0-42.667 19.103-42.667 42.667s19.103 42.667 42.667 42.667v0h711.112z" />
<glyph unicode="&#xe917;" glyph-name="cam" d="M136.76 32.673c-90.597 0-136.76 45.271-136.76 134.976v456.103c0 89.761 46.163 134.587 136.76 134.587h98.849c34.009 0 44.879 7.415 64.059 28.768l35.235 39.194c21.799 23.973 44.044 37.019 88.869 37.019h173.389c45.271 0 67.461-13.046 88.813-37.019l35.291-39.194c19.625-21.743 30.106-28.768 64.059-28.768h101.915c90.597 0 136.76-44.879 136.76-134.587v-456.051c0-89.705-46.163-134.976-136.76-134.976h-750.481zM138.041 102.754h747.86c43.152 0 67.962 23.081 67.962 68.408v448.638c0 45.271-24.81 68.352-67.962 68.352h-118.028c-39.194 0-60.101 7.415-81.9 31.779l-34.399 38.357c-24.81 27.876-37.465 34.845-76.213 34.845h-129.791c-38.748 0-51.403-6.969-76.213-34.845l-34.455-38.302c-21.743-24.419-42.652-31.779-81.843-31.779h-115.017c-43.096 0-67.962-23.137-67.962-68.408v-448.638c0-45.327 24.865-68.408 68.018-68.408zM511.749 639.815c0.185 0.001 0.399 0.001 0.616 0.001 118.023 0 213.699-95.676 213.699-213.699 0-0.353-0.001-0.706-0.003-1.058v0.054c0-119.365-95.337-214.757-214.311-214.757-0.084 0-0.185 0-0.282 0-117.96 0-213.587 95.626-213.587 213.587 0 0.412 0.001 0.823 0.003 1.234v-0.064c0 119.31 95.393 214.702 213.87 214.702zM511.749 574.474c-0.084 0-0.185 0-0.281 0-82.119 0-148.691-66.572-148.691-148.691 0-0.255 0.001-0.51 0.002-0.764v0.039c0-0.133-0.001-0.289-0.001-0.446 0-82.274 66.696-148.97 148.97-148.97 0 0 0.001 0 0.001 0v0c0.166-0.001 0.362-0.001 0.558-0.001 82.212 0 148.859 66.646 148.859 148.859 0 0.196 0 0.393-0.001 0.589v-0.030c0.001 0.166 0.001 0.362 0.001 0.558 0 82.212-66.646 148.859-148.859 148.859-0.196 0-0.393 0-0.589-0.001h0.030z" />
<glyph unicode="&#xe918;" glyph-name="tick" d="M165.274 467.579c-17.52 16.937-41.417 27.375-67.75 27.375-53.861 0-97.524-43.663-97.524-97.524 0-26.335 10.438-50.23 27.402-67.779l243.783-243.783c17.648-17.642 42.025-28.554 68.949-28.554s51.303 10.912 68.95 28.554l585.143 585.143c18.37 17.758 29.773 42.621 29.773 70.149 0 53.861-43.663 97.524-97.524 97.524-27.526 0-52.389-11.404-70.122-29.745l-516.221-516.221-174.861 174.861z" />
<glyph unicode="&#xe919;" glyph-name="egg" d="M571.2 946.56l31.36-16.64 30.72-22.4 31.36-28.16 30.72-33.28 30.080-39.040 28.8-44.16 27.52-49.28 24.32-51.2 21.12-53.12 17.92-54.4 14.080-54.4 10.24-54.4 6.4-53.76 1.92-52.48-5.12-75.52-16.64-72.32-26.88-68.48-39.040-61.44-51.2-51.2-62.72-40.32-75.52-25.6-88.32-8.96-88.32 8.96-75.52 25.6-63.36 40.32-50.56 51.2-39.040 61.44-27.52 68.48-16 72.32-5.76 75.52 2.56 52.48 6.4 53.76 10.24 54.4 14.080 54.4 17.92 54.4 21.12 53.12 24.32 51.2 27.52 49.28 28.8 44.16 30.080 39.040 30.72 33.28 30.72 28.16 31.36 22.4 30.72 16.64 30.080 9.6 29.44 3.84 28.8-3.84 30.080-9.6z" />
<glyph unicode="&#xe91a;" glyph-name="checkbox-stroke-checked" d="M204.8 960h614.4c113.108 0 204.8-91.692 204.8-204.8v0-614.4c0-113.108-91.692-204.8-204.8-204.8v0h-614.4c-113.108 0-204.8 91.692-204.8 204.8v0 614.4c0 113.108 91.692 204.8 204.8 204.8v0zM204.8 857.6c-56.554 0-102.4-45.846-102.4-102.4v0-614.4c0-56.554 45.846-102.4 102.4-102.4v0h614.4c56.554 0 102.4 45.846 102.4 102.4v0 614.4c0 56.554-45.846 102.4-102.4 102.4v0h-614.4zM330.598 458.598c-9.198 8.892-21.744 14.372-35.569 14.372-28.277 0-51.2-22.923-51.2-51.2 0-13.826 5.48-26.371 14.386-35.584l127.986-127.986c9.265-9.262 22.063-14.991 36.198-14.991s26.934 5.729 36.199 14.991l307.2 307.2c9.644 9.323 15.631 22.376 15.631 36.828 0 28.277-22.923 51.2-51.2 51.2-14.451 0-27.504-5.987-36.814-15.616l-271.016-271.016-91.802 91.802z" />
<glyph unicode="&#xe91b;" glyph-name="checkbox-fill-checked" d="M819.2 960c113.108 0 204.8-91.692 204.8-204.8v0-614.4c0-113.108-91.692-204.8-204.8-204.8v0h-614.4c-113.108 0-204.8 91.692-204.8 204.8v0 614.4c0 113.108 91.692 204.8 204.8 204.8v0h614.4zM693.402 637.798l-271.002-271.002-91.802 91.802c-9.198 8.892-21.744 14.372-35.569 14.372-28.277 0-51.2-22.923-51.2-51.2 0-13.826 5.48-26.371 14.386-35.584l127.986-127.986c9.265-9.262 22.063-14.991 36.198-14.991s26.934 5.729 36.199 14.991l307.2 307.2c9.644 9.323 15.631 22.376 15.631 36.828 0 28.277-22.923 51.2-51.2 51.2-14.451 0-27.504-5.987-36.814-15.616l-0.014-0.014z" />
<glyph unicode="&#xe91c;" glyph-name="checkbox-empty" d="M204.8 960h614.4c113.108 0 204.8-91.692 204.8-204.8v0-614.4c0-113.108-91.692-204.8-204.8-204.8v0h-614.4c-113.108 0-204.8 91.692-204.8 204.8v0 614.4c0 113.108 91.692 204.8 204.8 204.8v0zM204.8 857.6c-56.554 0-102.4-45.846-102.4-102.4v0-614.4c0-56.554 45.846-102.4 102.4-102.4v0h614.4c56.554 0 102.4 45.846 102.4 102.4v0 614.4c0 56.554-45.846 102.4-102.4 102.4v0h-614.4z" />
<glyph unicode="&#xe91d;" glyph-name="logo" horiz-adv-x="4160" d="M22.879 339.904c0-201.088 112.896-403.904 365.696-403.904 252.608 0 365.76 202.816 365.76 403.904 0 137.344-46.4 295.552-123.84 423.296-75.328 123.392-165.76 196.8-241.92 196.8-76.288 0-166.848-73.408-241.472-196.8-77.824-127.68-124.224-285.952-124.224-423.296zM2619.423 658.304h-256v246.848h786.304v-246.848h-256v-667.456h-274.368zM3734.879 658.304h402.24v246.848h-402.24c-369.664 0-567.040-183.872-567.040-457.152 0-273.408 197.376-457.152 567.040-457.152h402.24v246.848h-402.24c-171.008 0-283.52 61.184-283.52 210.304s112.448 210.304 283.52 210.304zM1659.359 359.424l146.304 545.728h484.736v-914.304h-274.304v744.128l-199.36-744.128h-314.496l-199.36 743.68v-743.68h-274.304v914.304h484.608z" />
<glyph unicode="&#xe91e;" glyph-name="mail" d="M512.976 394.439c17.309 0 33.14 6.966 50.501 22.849l410.022 405.695c-17.15 16.728-49.129 24.591-95.039 24.591h-746.694c-38.997 0-66.385-7.388-81.688-22.691l405.801-401.262c20-19.947 38.1-29.235 57.097-29.235zM11.557 123.148l327.912 324.166-328.809 324.218c-6.913-12.981-10.66-35.25-10.66-67.282v-512.026c0-32.928 4.222-56.094 11.609-69.129zM1013.341 123.623c6.966 13.404 10.66 36.147 10.66 68.601v512.026c0 31.134-3.219 53.35-10.185 65.91l-327.332-322.846 326.962-323.691zM145.645 48.426c-44.063 0-75.144 7.388-92.77 22.691l333.506 330.709 31.029-31.081c31.556-30.607 61.741-44.538 95.514-44.538 33.931 0 64.063 13.931 95.566 44.538l31.134 31.081 333.875-331.131c-15.303-14.881-42.216-22.269-81.16-22.269h-746.694z" />
<glyph unicode="&#xe91f;" glyph-name="log-out" d="M633.451 769.489c52.391 0 95.256 42.865 95.256 95.256s-42.865 95.256-95.256 95.256-95.256-42.865-95.256-95.256 42.865-95.256 95.256-95.256zM461.991 107.461l47.627 209.563 100.018-95.256v-285.768h95.256v357.209l-100.018 95.256 28.576 142.883c61.916-71.442 157.172-119.070 261.954-119.070v95.256c-90.493 0-166.698 47.627-204.8 114.307l-47.627 76.205c-19.051 28.576-47.627 47.627-80.967 47.627-14.289 0-23.814-4.763-38.102-4.763l-247.665-104.781v-223.852h95.256v161.935l85.73 33.34-76.205-385.786-233.377 47.627-19.051-95.256 333.395-66.679z" />
<glyph unicode="&#xe920;" glyph-name="arrow-down" d="M511.959-63.998c-13.473 0-25.996 4.914-36.299 16.248l-312.581 318.604c-8.82 8.974-14.473 21.086-15.133 34.511l-0.005 0.123c0 29.325 19.972 48.266 48.187 48.266 13.473 0 24.411-4.914 33.049-13.553l152.17-156.053 87.815-102.397-5.389 126.808v703.228c-0.016 0.456-0.025 0.993-0.025 1.531 0 25.781 20.899 46.682 46.682 46.682 0.538 0 1.074-0.009 1.608-0.027l-0.077 0.002c28.214 0 48.266-20.607 48.266-48.187v-703.228l-5.468-126.808 87.815 102.397 152.17 156.053c8.163 8.325 19.526 13.485 32.096 13.485 0.364 0 0.725-0.004 1.086-0.013l-0.054 0.001c28.135 0 48.187-18.942 48.187-48.187 0-11.333-5.944-25.362-15.137-34.635l-312.66-318.604c-10.303-11.333-22.746-16.248-36.299-16.248z" />
<glyph unicode="&#xe921;" glyph-name="arrow-left" d="M0.002 448.041c0 13.473 4.914 25.996 16.248 36.299l318.604 312.581c8.974 8.82 21.086 14.473 34.511 15.133l0.123 0.005c29.325 0 48.266-19.972 48.266-48.187 0-13.473-4.914-24.411-13.553-33.049l-156.053-152.17-102.397-87.815 126.808 5.389h703.228c0.456 0.016 0.993 0.025 1.531 0.025 25.781 0 46.682-20.899 46.682-46.682 0-0.538-0.009-1.074-0.027-1.608l0.002 0.077c0-28.214-20.607-48.266-48.187-48.266h-703.228l-126.808 5.468 102.397-87.815 156.053-152.17c8.325-8.163 13.485-19.526 13.485-32.096 0-0.364-0.004-0.725-0.013-1.086l0.001 0.054c0-28.135-18.942-48.187-48.187-48.187-11.333 0-25.362 5.944-34.635 15.137l-318.604 312.66c-11.333 10.303-16.248 22.746-16.248 36.299z" />
<glyph unicode="&#xe922;" glyph-name="arrow-up" d="M512.041 959.998c13.473 0 25.996-4.914 36.299-16.248l312.581-318.604c8.82-8.974 14.473-21.086 15.133-34.511l0.005-0.123c0-29.325-19.972-48.266-48.187-48.266-13.473 0-24.411 4.914-33.049 13.553l-152.17 156.053-87.815 102.397 5.389-126.808v-703.228c0.016-0.456 0.025-0.993 0.025-1.531 0-25.781-20.899-46.682-46.682-46.682-0.538 0-1.074 0.009-1.608 0.027l0.077-0.002c-28.214 0-48.266 20.607-48.266 48.187v703.228l5.468 126.808-87.815-102.397-152.17-156.053c-8.163-8.325-19.526-13.485-32.096-13.485-0.364 0-0.725 0.004-1.086 0.013l0.054-0.001c-28.135 0-48.187 18.942-48.187 48.187 0 11.333 5.944 25.362 15.137 34.635l312.66 318.604c10.303 11.333 22.746 16.248 36.299 16.248z" />
<glyph unicode="&#xe923;" glyph-name="arrow-right" d="M1023.998 447.961c0-13.473-4.914-25.996-16.248-36.299l-318.604-312.581c-8.974-8.82-21.086-14.473-34.511-15.133l-0.123-0.005c-29.325 0-48.266 19.972-48.266 48.187 0 13.473 4.914 24.411 13.553 33.049l156.053 152.17 102.397 87.815-126.808-5.389h-703.228c-0.456-0.016-0.993-0.025-1.531-0.025-25.781 0-46.682 20.899-46.682 46.682 0 0.538 0.009 1.074 0.027 1.608l-0.002-0.077c0 28.214 20.607 48.266 48.187 48.266h703.228l126.808-5.468-102.397 87.815-156.053 152.17c-8.325 8.163-13.485 19.526-13.485 32.096 0 0.364 0.004 0.725 0.013 1.086l-0.001-0.054c0 28.135 18.942 48.187 48.187 48.187 11.333 0 25.362-5.944 34.635-15.137l318.604-312.66c11.333-10.303 16.248-22.746 16.248-36.299z" />
<glyph unicode="&#xe924;" glyph-name="exchange" d="M927.995 665.6c0.017 0.426 0.027 0.926 0.027 1.428 0 20.96-16.992 37.952-37.952 37.952-0.437 0-0.872-0.007-1.306-0.022l0.063 0.002h-570.944l-103.488-4.8 83.648 71.040 126.784 123.52c6.544 6.298 10.609 15.132 10.609 24.915 0 0.646-0.018 1.289-0.053 1.926l0.004-0.089c0 22.336-15.36 38.528-38.72 38.528-11.173-0.44-21.192-5.045-28.616-12.296l0.008 0.008-258.88-252.8c-8.076-7.256-13.144-17.72-13.184-29.369v-0.007c0-10.496 4.416-20.608 13.184-28.928l258.88-253.248c7.445-7.119 17.482-11.582 28.558-11.839l0.050-0.001c23.296 0 38.72 15.808 38.72 38.592 0.021 0.453 0.033 0.984 0.033 1.518 0 9.86-4.054 18.773-10.586 25.164l-0.006 0.006-126.72 123.2-83.712 71.040 103.488-4.48h570.88c0.506-0.024 1.098-0.038 1.694-0.038 20.748 0 37.568 16.82 37.568 37.568 0 0.531-0.011 1.060-0.033 1.585l0.002-0.075zM927.995 230.4c0.002-0.147 0.003-0.321 0.003-0.495 0-11.492-5.091-21.795-13.14-28.777l-0.047-0.040-258.88-252.8c-7.3-7.162-17.147-11.751-28.060-12.284l-0.1-0.004c-23.744 0-39.168 16.192-39.168 39.040 0 10.88 3.968 19.648 11.008 26.688l126.72 123.136 83.2 70.976-102.976-4.416h-571.392c-0.407-0.016-0.885-0.025-1.364-0.025-20.89 0-37.824 16.934-37.824 37.824 0 0.436 0.007 0.871 0.022 1.304l-0.002-0.063c0 22.784 16.704 39.040 39.168 39.040h571.392l103.040-4.48-83.2 71.040-126.784 123.136c-6.796 6.592-11.014 15.81-11.014 26.012 0 0.238 0.002 0.474 0.007 0.711l-0.001-0.035c0 22.784 15.36 39.040 39.168 39.040 9.216 0 20.672-4.864 28.16-12.288l258.88-252.8c9.216-8.32 13.184-18.432 13.184-29.44z" />
<glyph unicode="&#xe925;" glyph-name="palm" d="M1015.444 843.871c-58.377 71.116-146.292 116.13-244.72 116.13-0.284 0-0.567 0-0.851-0.001h0.044c-135.311-0.033-250.694-85.317-295.361-205.061l-0.712-2.178c-32.13 96.354-121.413 164.627-226.673 164.844h-0.026c-77.083 0-149.932-37.341-194.791-99.829-1.049-1.442-1.677-3.25-1.677-5.203 0-4.921 3.989-8.909 8.909-8.909 0.684 0 1.35 0.077 1.99 0.223l-0.060-0.012c20.79 4.623 44.668 7.271 69.164 7.271 28.73 0 56.611-3.643 83.202-10.492l-2.308 0.505c0.647-0.17 1.391-0.266 2.157-0.266 4.489 0 8.197 3.344 8.769 7.677l0.005 0.045 2.78 20.345 24.009-37.594c1.011-1.58 2.527-2.844 4.296-3.475 16.364-6.319 29.632-12.194 41.827-18.702 9.983-5.371 20.155-11.499 31.086-18.828 1.417-1.008 3.184-1.611 5.090-1.611 4.607 0 8.391 3.522 8.808 8.021l0.002 0.035 2.274 21.229 20.661-54.716c0.533-1.378 1.353-2.544 2.392-3.467l0.009-0.007c30.959-27.737 56.359-60.276 74.745-95.405-45.57 51.735-111.811 84.336-185.675 84.79h-0.081c-137.132-0.283-248.187-111.516-248.187-248.686 0-2.867 0.048-5.722 0.145-8.565l-0.012 0.413c0.106-4.803 4.025-8.656 8.844-8.656 0.001 0 0.001 0 0.002 0v0c0.051-0.001 0.112-0.002 0.173-0.002 2.715 0 5.144 1.223 6.766 3.148l0.010 0.014c33.578 39.551 75.292 71.123 122.663 92.321l2.186 0.875c3.171 1.392 5.345 4.503 5.345 8.123 0 1.666-0.46 3.223-1.26 4.553l0.022-0.040-11.057 19.144 44.291-15.859c1.77-0.631 3.791-0.695 5.56-0.19 17.312 5.245 31.97 8.846 46.124 11.247 11.499 1.895 23.756 3.348 37.594 4.296 4.629 0.352 8.252 4.196 8.252 8.884 0 1.715-0.485 3.316-1.324 4.675l0.022-0.039-12.258 20.092 52.821-32.476c1.2-0.695 2.527-1.137 4.044-1.264 45.237-3.2 87.103-14.467 125.233-32.373l-2.152 0.908-110.886-593.156c-0.105-0.513-0.165-1.102-0.165-1.706 0-4.921 3.989-8.909 8.909-8.909 0.014 0 0.027 0 0.041 0h236.11c0.006 0 0.014 0 0.021 0 4.921 0 8.909 3.989 8.909 8.909 0 1.207-0.24 2.358-0.676 3.408l0.022-0.059-26.537 282.236c-0.46 4.564-4.282 8.098-8.93 8.098-0.551 0-1.090-0.049-1.614-0.145l0.055 0.008-53.452-9.667c12.763 17.186 33.171 44.607 54.842 73.229 1.127 1.483 1.804 3.361 1.804 5.397 0 0.28-0.013 0.557-0.038 0.831l0.002-0.036-21.861 231.5c28.016 19.232 60.459 34.808 95.202 45.010l2.416 0.608c1.452 0.414 2.703 1.135 3.733 2.091l-0.006-0.005 42.333 40.31-7.14-20.092c-0.349-0.915-0.553-1.972-0.553-3.077 0-4.885 3.961-8.846 8.846-8.846 0.485 0 0.961 0.039 1.424 0.114l-0.050-0.006c13.268 1.895 25.083 3.032 36.267 3.475 14.342 0.631 28.432 0.126 45.744-1.264 1.895-0.19 3.791 0.253 5.433 1.264l37.909 23.378-6.319-19.46c-0.282-0.83-0.445-1.786-0.445-2.781 0-4.272 3.007-7.842 7.020-8.708l0.059-0.010c50.609-10.741 97.806-32.349 136.348-62.741 0.752-4.222 4.395-7.387 8.777-7.387 4.921 0 8.909 3.989 8.909 8.909 0 2.835-1.325 5.361-3.388 6.993l-0.019 0.015c-20.268 113.29-118.053 198.162-235.66 198.162-3.537 0-7.055-0.077-10.554-0.229l0.498 0.017c-36.425-1.613-70.269-11.196-100.302-27.033l1.295 0.622 22.178 72.155 7.013-40.437c0.743-4.233 4.391-7.41 8.782-7.41 2.055 0 3.947 0.695 5.454 1.865l-0.020-0.015c14.216 10.867 27.358 19.965 40.121 27.864 15.083 9.411 32.951 18.968 51.445 27.391l3.019 1.231c1.757 0.811 3.168 2.121 4.083 3.747l0.023 0.045 32.666 59.139 7.013-34.75c0.844-4.112 4.434-7.16 8.735-7.16 0.942 0 1.849 0.146 2.701 0.416l-0.063-0.017c40.529 13.411 87.183 21.145 135.643 21.145 23.124 0 45.836-1.761 68.011-5.157l-2.481 0.313c0.384-0.058 0.826-0.090 1.277-0.090 3.325 0 6.231 1.796 7.799 4.471l0.023 0.043c0.715 1.26 1.137 2.766 1.137 4.372 0 2.16-0.764 4.141-2.035 5.689l0.013-0.016z" />
<glyph unicode="&#xe926;" glyph-name="reject" d="M428.622-21.243c56.825-57.264 109.555-56.752 166.38 0l69.405 68.966c5.534 5.868 13.362 9.522 22.043 9.522 0.324 0 0.646-0.005 0.968-0.015l-0.047 0.001h97.414c80.667 0 118.039 36.933 118.039 118.039v97.414c0 9.508 2.706 15.724 9.508 22.964l68.527 69.478c57.703 56.752 57.191 109.482 0 166.234l-68.527 69.478c-5.861 5.38-9.521 13.076-9.521 21.628 0 0.315 0.005 0.63 0.015 0.943l-0.001-0.046v97.78c0 80.228-36.933 118.112-118.039 118.112h-97.414c-0.461-0.025-1-0.040-1.543-0.040-8.395 0-15.983 3.459-21.415 9.029l-0.006 0.006-69.478 68.966c-56.752 57.264-109.482 56.825-166.234 0l-69.478-68.966c-5.288-5.569-12.747-9.035-21.017-9.035-0.531 0-1.058 0.014-1.582 0.042l0.073-0.003h-97.78c-80.667 0-118.112-36.933-118.112-118.112v-97.78c0-9.069-2.194-15.797-8.996-22.525l-68.966-69.478c-57.264-56.752-56.825-109.482 0-166.307l68.966-69.405c5.576-5.438 9.035-13.026 9.035-21.421 0-0.543-0.014-1.082-0.043-1.617l0.003 0.075v-97.414c0-80.667 37.445-118.039 118.112-118.039h97.78c9.069 0 15.797-2.706 22.525-9.508l69.478-68.966zM351.1 245.185c-21.137 0.409-38.13 17.581-38.249 38.749v0.011c0 9.873 4.461 19.381 11.263 25.67l134.274 134.786-134.274 134.347c-6.933 6.565-11.252 15.832-11.263 26.107v0.002c0 20.771 17.113 37.445 38.249 37.445 0.267 0.008 0.58 0.012 0.895 0.012 9.669 0 18.364-4.17 24.385-10.809l0.025-0.028 135.225-134.421 135.664 134.859c5.976 6.925 14.765 11.282 24.571 11.282 0.387 0 0.772-0.007 1.155-0.020l-0.056 0.002c20.89-0.083 37.801-16.994 37.884-37.876v-0.008c0.014-0.358 0.022-0.779 0.022-1.201 0-7.745-2.652-14.87-7.096-20.518l0.054 0.071-138.59-139.248 133.835-133.835c6.914-6.931 11.19-16.498 11.19-27.063 0-20.985-16.867-38.030-37.784-38.318h-0.027c-10.393 0.132-19.761 4.413-26.545 11.26l-0.003 0.003-134.274 134.786-134.347-134.786c-6.573-6.942-15.856-11.263-26.147-11.263-0.012 0-0.025 0-0.037 0h0.002z" />
<glyph unicode="&#xe927;" glyph-name="accept" d="M428.624 917.216c56.825 56.825 109.555 57.264 166.38 0l69.405-68.966c5.438-5.576 13.026-9.035 21.421-9.035 0.543 0 1.082 0.014 1.617 0.043l-0.075-0.003h97.414c81.105 0 118.039-37.884 118.039-118.112v-97.78c0-9.069 2.706-15.797 9.508-22.525l68.527-69.478c57.191-56.752 57.703-109.482 0-166.307l-68.527-69.405c-5.868-5.534-9.522-13.362-9.522-22.043 0-0.324 0.005-0.646 0.015-0.968l-0.001 0.047v-97.414c0-81.105-37.372-118.039-118.039-118.039h-97.414c-0.274 0.009-0.597 0.014-0.921 0.014-8.681 0-16.509-3.654-22.029-9.507l-0.014-0.015-69.478-68.966c-56.752-56.752-109.482-57.264-166.234 0l-69.478 68.966c-5.38 5.861-13.076 9.521-21.628 9.521-0.315 0-0.63-0.005-0.943-0.015l0.046 0.001h-97.78c-80.667 0-118.112 37.372-118.112 118.039v97.414c0 9.508-2.194 15.724-8.996 22.964l-68.966 69.478c-56.825 56.752-57.264 109.482 0 166.234l68.966 69.478c5.569 5.288 9.035 12.747 9.035 21.017 0 0.531-0.014 1.058-0.042 1.582l0.003-0.073v97.78c0 81.179 37.445 118.112 118.112 118.112h97.78c9.069 0 15.797 2.194 22.525 8.996zM699.586 663.88c-15.797 0-24.866-5.338-33.861-18.43l-232.128-326.836-119.428 132.080c-6.919 7.787-16.96 12.668-28.142 12.668-0.391 0-0.781-0.006-1.169-0.018l0.057 0.001c-23.037 0-39.273-15.797-39.273-37.006 0-9.434 3.657-18.43 9.946-25.597l150.51-167.331c6.801-7.606 15.797-12.141 29.765-12.141 0.433-0.018 0.942-0.028 1.452-0.028 11.793 0 22.317 5.43 29.21 13.926l0.055 0.070 262.625 367.353c4.756 6.679 7.74 14.914 8.115 23.824l0.003 0.091c0.006 0.246 0.009 0.536 0.009 0.826 0 20.196-16.372 36.567-36.567 36.567-0.441 0-0.879-0.008-1.316-0.023l0.063 0.002z" />
<glyph unicode="&#xe928;" glyph-name="edit" d="M0.019 137.385v-172.916c0-15.974 12.493-28.467 28.467-28.467h172.916c0.098-0.001 0.214-0.002 0.33-0.002 7.712 0 14.658 3.279 19.52 8.518l0.016 0.017 621.148 620.534-213.33 213.33-620.534-620.534c-5.266-5.096-8.536-12.228-8.536-20.123 0-0.125 0.001-0.251 0.002-0.375v0.019zM1007.346 730.067c10.278 10.258 16.637 24.44 16.637 40.106s-6.359 29.849-16.636 40.105l-133.119 133.119c-10.254 10.258-24.422 16.603-40.072 16.603s-29.818-6.345-40.071-16.602l-104.105-104.241 213.262-213.262 104.105 104.105z" />
<glyph unicode="&#xe929;" glyph-name="indicators" d="M512-64c279.616 0 512 231.936 512 512 0 279.616-232.96 512-512.512 512-280.064 0-511.488-232.384-511.488-512 0-280.064 231.936-512 512-512zM512 21.312c-0.477-0.002-1.041-0.003-1.605-0.003-234.487 0-424.576 190.089-424.576 424.576 0 0.744 0.002 1.487 0.006 2.229v-0.114c-0.004 0.647-0.006 1.412-0.006 2.178 0 234.452 190.060 424.512 424.512 424.512 0.407 0 0.814-0.001 1.22-0.002h-0.063c0.228 0 0.498 0.001 0.768 0.001 235.512 0 426.432-190.92 426.432-426.432 0-0.090 0-0.181 0-0.271v0.014c0.002-0.495 0.003-1.081 0.003-1.667 0-234.734-190.29-425.024-425.024-425.024-0.586 0-1.172 0.001-1.757 0.004h0.090zM511.488 688.96c27.001 0.39 48.79 22.157 49.215 49.112l0.001 0.040c0 0.001 0 0.002 0 0.003 0 27.284-21.973 49.436-49.189 49.725h-0.027c-0.020 0-0.044 0-0.068 0-27.111 0-49.088-21.977-49.088-49.088 0-0.225 0.002-0.45 0.005-0.674v0.034c0.073-27.117 22.035-49.079 49.145-49.152h0.007zM307.2 600.64c27.235 0.034 49.339 21.958 49.664 49.121v0.031c0 0.039 0 0.085 0 0.131 0 27.111-21.977 49.088-49.088 49.088-0.203 0-0.405-0.001-0.607-0.004h0.031c-27.189-0.036-49.216-22.086-49.216-49.28v0c0.426-26.995 22.215-48.762 49.179-49.152h0.037zM715.264 600.64c27.028 0.354 48.853 22.135 49.279 49.112l0.001 0.040c-1.373 26.115-22.883 46.769-49.216 46.769s-47.843-20.655-49.211-46.647l-0.005-0.122c0-26.624 22.080-49.216 49.152-49.216zM511.488 395.84c28.16 0 52.224 23.552 52.224 52.16 0 3.008-0.512 5.504-1.024 8.512l77.824 97.408c7.040 9.536 8.512 21.12 0 28.16-3.556 3.282-8.327 5.295-13.568 5.295s-10.012-2.013-13.582-5.307l0.014 0.012-93.824-82.88c-2.382 0.556-5.151 0.923-7.989 1.022l-0.075 0.002c-28.843 0-52.224-23.381-52.224-52.224s23.381-52.224 52.224-52.224v0zM222.4 398.72c0.057 0 0.125 0 0.193 0 27.040 0 48.96 21.92 48.96 48.96 0 0.113 0 0.225-0.001 0.338v-0.017c0 0.076 0.001 0.166 0.001 0.256 0 27.040-21.92 48.96-48.96 48.96-0.068 0-0.135 0-0.203 0h0.010c-27.122-0.18-49.064-22.1-49.28-49.195v-0.021c0-27.136 22.656-49.216 49.28-49.216zM800.128 398.72c26.115 1.373 46.769 22.883 46.769 49.216s-20.655 47.843-46.647 49.211l-0.122 0.005c-26.115-1.373-46.769-22.883-46.769-49.216s20.655-47.843 46.647-49.211l0.122-0.005zM714.304 196.48c-27.221 0.289-49.181 22.406-49.216 49.661v0.003c0.036 27.167 22.049 49.18 49.213 49.216h0.003c26.56 0 49.152-22.080 49.152-49.216-0.211-27.165-22.030-49.164-49.105-49.663l-0.047-0.001z" />
<glyph unicode="&#xe92a;" glyph-name="award-branch" horiz-adv-x="1799" d="M1220.675 71.738c83.47-12.233 126.422-71.514 126.422-71.514s-56.458-62.934-137.88-51.145c-81.311 11.845-118.839 79.872-118.839 79.872s46.827 54.798 130.297 42.787zM708.675 29.948s-37.473-67.971-118.895-79.817c-76.44-11.070-130.934 43.728-137.271 50.425l-0.609 0.664s42.953 59.392 126.422 71.625c83.414 12.011 130.352-42.897 130.352-42.897zM1597.95 651.876c0.111-4.428 10.129-440.32-647.666-636.707l-11.513 38.469c626.301 187.143 619.603 579.971 618.883 596.632zM201.020 652.927l40.24-1.605c-0.72-16.384-7.279-401.712 600.285-591.014l18.598-5.674-11.513-38.525c-624.834 186.672-647.057 589.409-647.611 632.998v3.819zM1404.303 170.485c84.466-2.103 134.172-55.96 134.172-55.96s-48.709-69.134-130.795-67.141c-82.252 1.937-127.696 64.982-127.696 64.982s40.074 60.167 124.319 58.119zM518.958 113.584s-45.499-63.101-127.696-64.982c-82.086-2.048-130.795 67.141-130.795 67.141s49.816 53.857 134.172 55.905c84.245 2.048 124.319-58.064 124.319-58.064zM1135.24 337.868s31.107-66.588 1.107-145.463c-30.111-78.71-100.906-92.99-100.906-92.99s-41.126 65.923-11.845 142.751c29.392 76.828 111.644 95.702 111.644 95.702zM663.591 338.975s82.474-18.819 111.754-95.647c29.281-76.883-11.845-142.806-11.845-142.806s-70.85 14.281-100.961 93.046c-30 78.876 1.052 145.408 1.052 145.408zM1664.731 292.479s-25.517-80.592-104.393-103.562c-78.986-22.971-141.423 23.303-141.423 23.303s20.037 69.466 100.906 93.046c81.034 23.635 144.91-12.786 144.91-12.786zM279.065 306.483c80.868-23.58 100.906-93.046 100.906-93.046s-62.326-46.329-141.312-23.248c-78.876 23.026-104.393 103.562-104.393 103.562s63.765 36.31 144.799 12.731zM1255.574 458.644s48.765-54.687 42.731-138.877c-6.199-84.245-69.853-118.175-69.853-118.175s-58.23 51.421-52.362 133.286c6.089 81.975 79.485 123.766 79.485 123.766zM543.368 459.641s73.507-41.735 79.485-123.6c5.923-81.92-52.362-133.452-52.362-133.452s-63.765 34.041-69.853 118.23c-6.089 84.189 42.731 138.821 42.731 138.821zM1385.041 578.203s53.691-49.982 55.573-134.227c1.771-84.3-58.506-124.264-58.506-124.264s-62.879 45.886-64.706 127.972c-1.605 82.086 67.639 130.518 67.639 130.518zM414.731 578.757c7.611-5.646 68.359-52.999 66.809-129.965-1.716-76.883-56.846-121.911-63.931-127.391l-0.775-0.581s-60.278 39.908-58.451 124.264c1.578 73.507 42.565 120.804 53.137 131.764l1.024 1.079 2.186 0.83zM1764.917 485.324s-6.864-84.245-78.71-124.153c-71.901-39.908-143.028-8.69-143.028-8.69s4.096 72.234 77.713 113.138c73.783 40.96 144.024 19.705 144.024 19.705zM177.994 466.781c73.617-40.96 77.713-113.194 77.713-113.194s-71.071-31.163-143.028 8.746c-71.818 39.908-78.682 124.098-78.682 124.098s70.241 21.2 144.024-19.65zM1786.449 703.961s18.266-82.474-38.635-141.81c-56.846-59.337-134.116-50.48-134.116-50.48s-17.436 70.13 40.849 131.072c58.506 60.886 131.902 61.219 131.902 61.219zM12.549 705.013s73.396-0.221 131.847-61.163c58.23-60.831 40.905-131.017 40.905-131.017s-77.27-8.856-134.116 50.37c-56.901 59.392-38.635 141.81-38.635 141.81zM1453.87 780.955s59.779-42.454 72.676-125.869c12.675-83.359-41.79-130.685-41.79-130.685s-68.248 37.085-80.758 118.397c-11.375 73.756 39.133 127.585 48.432 136.773l0.775 0.775 0.664 0.609zM345.183 782.228s62.381-57.123 49.816-138.268c-12.509-81.366-80.785-118.397-80.785-118.397s-54.521 47.381-41.735 130.795c12.897 83.359 72.676 125.869 72.676 125.869zM1622.166 947.286l0.637-0.637c6.476-6.531 59.503-62.824 45.942-138.904-14.419-80.868-83.498-116.293-83.498-116.293s-53.469 48.654-38.635 131.736c14.668 82.972 75.555 124.098 75.555 124.098zM176.859 948.393s60.831-41.126 75.61-124.098c14.779-83.027-38.691-131.681-38.691-131.681s-69.078 35.425-83.47 116.238c-14.391 80.979 46.55 139.541 46.55 139.541z" />
<glyph unicode="&#xe92b;" glyph-name="badge" d="M754.096-25.495c0-27.034-13.819-38.505-33.071-38.505-15.093 0-27.503 8.721-40.316 21.6l-149.055 148.586c-8.251 7.312-13.752 10.062-19.252 10.062s-11.404-2.75-19.252-10.062l-149.055-148.586c-12.343-12.41-24.753-21.6-40.316-21.6-18.783 0-33.541 11.471-33.541 38.572v346.074c-75.312 67.278-122.556 164.613-122.759 272.986v0.036c-0.067 201.714 164.014 366.332 364.454 366.332 199.903 0 365.058-164.618 364.588-366.399-0.572-107.795-47.604-204.493-122.075-271.172l-0.349-0.307v-347.55zM512.401 301.125c162.807-0.604 290.731 130.138 290.262 292.476-0.47 162.807-127.455 293.482-290.262 293.482-163.277 0-290.262-130.675-290.262-293.482 0-162.337 126.985-292.073 290.262-292.543z" />
<glyph unicode="&#xe92c;" glyph-name="smile" d="M512-64c279.609 0 512 231.879 512 512 0 279.609-232.903 512-512.512 512-280.064 0-511.488-232.391-511.488-512 0-280.121 231.879-512 512-512zM512 21.333c-0.458-0.002-0.999-0.003-1.541-0.003-234.51 0-424.619 190.108-424.619 424.619 0 0.721 0.002 1.442 0.005 2.162v-0.112c0 236.43 188.7 426.667 425.643 426.667 236.43 0 426.667-190.236 427.179-426.667 0.002-0.491 0.003-1.072 0.003-1.653 0-234.73-190.287-425.017-425.017-425.017-0.581 0-1.162 0.001-1.743 0.003h0.090zM365.909 493.682c29.582 0 54.215 26.112 54.215 62.748s-24.576 62.748-54.215 62.748c-29.070 0-53.191-26.112-53.191-62.748s24.121-62.748 53.191-62.748zM659.57 493.682c29.582 0 54.215 26.112 54.215 62.748s-24.576 62.748-54.215 62.748c-29.582 0-53.703-26.112-53.703-62.748s24.121-62.748 53.703-62.748zM512 206.052c-121.458 0-197.291 85.845-197.291 118.443 0 6.542 5.063 9.557 10.069 5.063 35.1-28.103 98.418-60.302 187.221-60.302 88.348 0 150.073 30.151 186.709 60.757 5.063 4.039 10.069 1.024 10.069-5.518 0-32.597-75.833-118.443-196.779-118.443z" />
<glyph unicode="&#xe92d;" glyph-name="loop" d="M994.020 492.394h-57.336c-23.041 213.052-206.407 382.592-424.924 382.592-127.263 0-242.737-57.764-321.506-148.589-15.915-18.004-13.396-40.188 2.947-51.924 16.772-11.736 36.437-7.931 50.262 7.502 65.455 74.841 161.127 121.851 267.778 121.851 0.183 0 0.365 0 0.548 0h-0.028c0.345 0.001 0.754 0.002 1.162 0.002 180.577 0 329.606-135.071 351.565-309.691l0.178-1.743h-62.372c-29.74 0-37.669-20.094-21.327-43.135l93.344-133.532c13.396-19.291 33.49-19.665 47.315 0l93.773 133.103c16.718 23.47 8.788 43.563-21.381 43.563zM29.93 403.23c-30.114 0-38.045 20.522-21.327 43.511l93.773 133.157c13.771 19.665 33.49 19.237 46.886 0l93.773-133.586c16.29-22.559 8.359-43.082-21.381-43.082h-62.372c22.086-176.146 170.924-311.058 351.271-311.058 0.423 0 0.848 0.001 1.271 0.003h-0.065c108.455 0 204.692 46.886 269.207 121.797 13.825 15.539 33.49 19.719 50.208 7.984 15.915-11.736 18.004-34.294 2.947-52.352-78.716-90.397-194.243-148.589-322.363-148.589-218.089 0-401.453 169.112-424.494 382.217h-57.336z" />
<glyph unicode="&#xe92e;" glyph-name="failed" d="M428.672-21.312c56.768-57.28 109.504-56.832 166.336 0l69.44 68.928c5.542 5.848 13.364 9.487 22.036 9.487 0.331 0 0.66-0.005 0.988-0.016l-0.048 0.001h97.344c80.704 0 118.144 36.992 118.144 118.144v97.344c0 9.472 2.688 15.808 9.472 23.040l68.48 69.376c57.728 56.832 57.28 109.568 0 166.4l-68.48 69.376c-5.84 5.386-9.486 13.076-9.486 21.618 0 0.32 0.005 0.639 0.015 0.956l-0.001-0.046v97.856c0 80.192-36.992 118.080-118.144 118.080h-97.344c-0.477-0.027-1.036-0.043-1.598-0.043-8.408 0-16.005 3.472-21.435 9.060l-0.007 0.007-69.312 68.992c-56.832 57.216-109.568 56.768-166.4 0l-69.376-68.992c-5.281-5.55-12.723-9.002-20.971-9.002-0.548 0-1.092 0.015-1.632 0.045l0.075-0.003h-97.92c-80.64 0-118.080-36.992-118.080-118.144v-97.856c0-8.96-2.24-15.744-9.024-22.528l-68.992-69.44c-57.216-56.768-56.768-109.504 0-166.336l68.992-69.44c6.784-7.168 8.96-13.504 8.96-22.976v-97.344c0-80.704 37.44-118.144 118.144-118.144h97.856c8.96 0 15.744-2.688 22.528-9.472l69.44-68.928zM351.104 245.056c-21.156 0.394-38.168 17.585-38.272 38.774v0.010c0 9.92 4.48 19.392 11.264 25.728l134.336 134.784-134.4 134.336c-6.905 6.577-11.2 15.841-11.2 26.109 0 0.001 0 0.002 0 0.003v0c0.179 20.718 17.016 37.443 37.759 37.443 0.181 0 0.361-0.001 0.541-0.004h-0.027c10.368 0 19.392-4.032 25.28-10.88l135.232-134.272 135.68 134.784c5.974 6.927 14.762 11.285 24.567 11.285 0.408 0 0.815-0.008 1.219-0.023l-0.058 0.002c20.736 0 37.824-17.152 37.824-37.888 0.020-0.423 0.031-0.92 0.031-1.419 0-9.846-4.36-18.674-11.255-24.659l-0.040-0.034-134.336-134.784 133.888-133.888c6.933-6.927 11.222-16.5 11.222-27.074 0-20.987-16.893-38.029-37.823-38.269h-0.023c-10.397 0.135-19.768 4.416-26.557 11.261l-0.003 0.003-134.4 134.784-134.272-134.784c-6.574-6.969-15.866-11.312-26.173-11.328h-0.003z" />
<glyph unicode="&#xe92f;" glyph-name="done" d="M428.672 917.248c56.768 56.768 109.504 57.216 166.336 0l69.44-68.992c7.168-6.784 13.504-8.96 22.976-8.96h97.344c81.152 0 118.144-37.952 118.144-118.144v-97.856c0-8.96 2.688-15.744 9.472-22.528l68.48-69.44c57.28-56.768 57.728-109.504 0-166.336l-68.48-69.44c-5.848-5.542-9.487-13.364-9.487-22.036 0-0.331 0.005-0.66 0.016-0.988l-0.001 0.048v-97.344c0-81.152-37.44-118.144-118.144-118.144h-97.344c-0.299 0.011-0.65 0.017-1.002 0.017-8.673 0-16.496-3.64-22.025-9.475l-0.013-0.014-69.376-68.928c-56.832-56.832-109.568-57.28-166.4 0l-69.376 68.928c-5.386 5.84-13.076 9.486-21.618 9.486-0.32 0-0.639-0.005-0.956-0.015l0.046 0.001h-97.856c-80.64 0-118.080 37.44-118.080 118.144v97.344c0.027 0.477 0.043 1.036 0.043 1.598 0 8.408-3.472 16.005-9.060 21.435l-0.007 0.007-68.992 69.312c-56.768 56.832-57.216 109.568 0 166.4l68.992 69.376c5.55 5.281 9.002 12.723 9.002 20.971 0 0.548-0.015 1.092-0.045 1.632l0.003-0.075v97.92c0 81.152 37.44 118.080 118.144 118.080h97.856c8.96 0 15.744 2.24 22.528 9.024zM712.576 672c-16.448 0-25.792-5.504-35.2-18.688l-241.664-330.752-124.352 133.632c-7.276 7.894-17.667 12.822-29.209 12.822-0.464 0-0.926-0.008-1.386-0.024l0.067 0.002c-23.936 0-40.832-16-40.832-37.44 0-9.6 3.776-18.688 10.304-25.984l156.8-169.28c7.040-7.68 16.384-12.288 30.912-12.288 14.080 0 24.896 5.504 31.936 14.144l273.6 371.84c4.922 6.704 8.027 15.016 8.444 24.030l0.004 0.098c0 21.44-16.448 37.888-39.424 37.888z" />
<glyph unicode="&#xe930;" glyph-name="goal" d="M503.989-23.522c262.144 0 480.015 217.449 480.015 480.015 0 262.084-218.353 479.955-480.497 479.955-262.566 0.060-479.413-217.871-479.413-479.955 0-262.626 217.389-480.075 479.955-480.075zM503.989 56.471c-0.431-0.002-0.94-0.003-1.45-0.003-219.862 0-398.095 178.233-398.095 398.095 0 0.657 0.002 1.314 0.005 1.971v-0.101c0 221.666 176.971 400.023 399.059 400.023 221.666 0 400.023-178.296 400.504-399.962 0.002-0.466 0.003-1.017 0.003-1.569 0-220.061-178.395-398.456-398.456-398.456-0.531 0-1.061 0.001-1.591 0.003h0.082zM504.471 318.133c-76.27 0.307-138.020 62.035-138.36 138.268v0.033c0 75.294 62.645 136.915 138.36 136.915 75.294 0 137.939-61.621 137.939-136.915-0.237-76.171-61.802-137.883-137.893-138.36h-0.046z" />
<glyph unicode="&#xe931;" glyph-name="bubble" d="M738.253-32.631c-22.796 0-38.556 12.092-66.407 37.168l-160.813 142.626h-298.185c-138.066 0-212.848 76.665-212.848 212.799v355.87c0 136.133 74.831 212.799 212.799 212.799h598.403c138.463 0 212.799-76.219 212.799-212.799v-355.87c0-136.579-74.336-212.799-212.799-212.799h-21.805v-120.77c0-35.78-18.633-58.973-51.143-58.973zM719.173 52.409v129.592c0 25.125 14.867 39.992 39.992 39.992h52.035c94.308 0 137.967 47.823 137.967 138.414v355.424c0 90.591-43.66 138.017-137.967 138.017h-597.956c-93.861 0-138.463-47.426-138.463-138.017v-355.424c0-90.591 44.601-138.414 138.463-138.414h300.614c26.018 0 39.497-3.717 57.14-21.855l148.176-147.73z" />
<glyph unicode="&#xe932;" glyph-name="hart" d="M511.999-23.007c-17.036 0-38.718 8.228-56.722 20.133-281.529 179.943-455.277 394.442-455.277 606.327 0 187.154 125.834 315.553 291.838 315.553 85.568 0 162.423-36.589 220.162-121.188 58.271 84.6 134.546 121.188 220.162 121.188 166.004 0 291.838-128.4 291.838-315.553 0-211.886-173.748-426.384-455.277-606.327-18.053-11.857-39.686-20.133-56.722-20.133z" />
<glyph unicode="&#xe933;" glyph-name="hart-stroke" d="M511.999-23.007c-17.036 0-38.718 8.228-56.722 20.133-281.529 179.943-455.277 394.442-455.277 606.327 0 187.154 125.834 315.553 291.838 315.553 85.568 0 162.423-36.589 220.162-121.188 58.271 84.6 134.546 121.188 220.162 121.188 166.004 0 291.838-128.4 291.838-315.553 0-211.886-173.748-426.384-455.277-606.327-18.053-11.857-39.686-20.133-56.722-20.133zM511.999 62.608c3.098 0 7.211 1.548 13.406 5.662 245.957 160.342 415.543 355.239 415.543 535.183 0 141.805-89.197 232.551-208.788 232.551-91.762 0-155.211-65.483-182.508-120.656-9.825-19.601-20.665-28.893-37.654-28.893-17.036 0-27.829 9.292-38.186 29.426-28.313 54.641-90.214 120.123-181.976 120.123-119.639 0-208.836-90.746-208.836-232.551 0-179.943 169.634-374.841 415.591-535.183 5.662-4.114 10.309-5.662 13.406-5.662z" />
<glyph unicode="&#xe934;" glyph-name="telegram" d="M73.676 5.997l918.323 393.642c18.972 8.233 32.001 26.803 32.001 48.416s-13.029 40.183-31.661 48.284l-0.339 0.131-918.323 393.642c-6.154 2.754-13.336 4.358-20.893 4.358-28.857 0-52.252-23.391-52.258-52.247v-0.001l-0.526-242.606c0-26.313 19.472-48.942 45.784-52.1l743.605-99.463-743.605-98.937c-26.313-3.684-45.784-26.313-45.784-52.626l0.526-242.606c0-37.364 38.417-63.151 73.15-47.89z" />
<glyph unicode="&#xe935;" glyph-name="bold" d="M207.284-64.001c-76.626 0-120.988 45.096-120.988 123.097v776.982c0 78.826 44.362 123.921 120.988 123.921h362.964c199.172 0 320.802-98.074 320.802-257.833 0-113.839-80.842-203.389-199.722-219.795v-5.774c146.102-7.883 246.376-108.798 246.376-248.392 0-176.899-138.22-292.205-356.64-292.205h-373.779zM322.589 534.524h158.201c111.73 0 177.632 49.495 177.632 132.537 0 78.826-59.485 124.654-159.759 124.654h-176.074v-257.1zM322.589 101.351h184.69c123.188 0 190.465 50.136 190.465 143.902 0 91.657-69.384 140.42-195.414 140.42h-179.741v-284.322z" />
<glyph unicode="&#xe936;" glyph-name="link" d="M642.257 578.193c46.479-46.484 75.227-110.699 75.227-181.628 0-65.969-24.868-126.129-65.739-171.618l0.209 0.237-9.632-10.275-204.472-204.215c-46.418-46.090-110.369-74.576-180.975-74.576-141.868 0-256.875 115.007-256.875 256.875 0 65.652 24.63 125.552 65.152 170.964l-0.222-0.253 9.632 10.275 62.806 62.742c7.257 7.227 17.267 11.695 28.321 11.695 22.167 0 40.137-17.97 40.137-40.137 0-8.5-2.643-16.383-7.151-22.873l0.086 0.132-4.624-5.587-62.806-62.742c-32.234-32.004-52.188-76.34-52.188-125.338 0-97.534 79.068-176.601 176.601-176.601 44.747 0 85.607 16.642 116.729 44.075l-0.193-0.167 8.862 8.284 204.279 204.344c31.957 31.958 51.722 76.108 51.722 124.874s-19.766 92.915-51.722 124.874v0c-6.761 7.168-10.917 16.857-10.917 27.517 0 22.167 17.97 40.137 40.137 40.137 10.676 0 20.378-4.169 27.568-10.965l-0.019 0.018zM948.773 884.709c46.479-46.484 75.227-110.699 75.227-181.628 0-65.969-24.868-126.129-65.739-171.618l0.209 0.237-9.632-10.275-62.806-62.742c-7.257-7.227-17.267-11.695-28.321-11.695-22.167 0-40.137 17.97-40.137 40.137 0 8.5 2.643 16.383 7.151 22.873l-0.086-0.132 4.624 5.587 62.742 62.742c31.959 31.958 51.727 76.109 51.727 124.877 0 97.534-79.068 176.601-176.601 176.601-44.501 0-85.158-16.46-116.215-43.624l0.206 0.176-8.862-8.22-204.344-204.344c-31.976-31.962-51.754-76.124-51.754-124.906s19.779-92.944 51.754-124.905l0.001-0.001c8.034-7.365 13.053-17.907 13.053-29.621 0-22.167-17.97-40.137-40.137-40.137-11.715 0-22.257 5.018-29.594 13.023l-0.027 0.030c-46.479 46.484-75.227 110.699-75.227 181.628 0 65.969 24.868 126.129 65.739 171.618l-0.209-0.237 9.632 10.275 204.408 204.215c46.485 46.488 110.706 75.241 181.643 75.241s135.157-28.754 181.642-75.241v0z" />
<glyph unicode="&#xe937;" glyph-name="strike" d="M25.407 430.969c-14.291 0-25.407 11.116-25.407 25.407s11.116 25.407 25.407 25.407h250.026c-58.358 40.97-85.751 95.516-85.751 168.722 0 150.063 134.66 256.219 321.326 256.219 159.433 0 283.453-77.573 311.401-190.477 2.462-9.29 3.732-19.214 3.732-28.504 0-30.965-19.849-49.624-52.086-49.624-24.852 0-39.064 11.116-49.624 34.777-30.41 85.591-106.712 133.946-213.424 133.946-118.463 0-204.054-61.375-204.054-148.237 0-68.839 53.356-107.347 179.282-137.757l101.074-24.137c19.849-4.367 37.873-9.29 55.261-14.927h356.023c14.291 0 25.407-11.116 25.407-25.407s-11.116-25.407-25.407-25.407h-240.101c62.725-41.605 91.229-97.422 91.229-174.915 0-161.973-132.119-266.779-337.444-266.779-170.627 0-300.205 73.205-333.077 190.477-2.774 10.281-4.368 22.085-4.368 34.262 0 0.153 0 0.306 0.001 0.46v-0.024c0 32.235 20.484 52.721 53.356 52.721 26.042 0 39.7-11.751 50.815-38.429 32.315-88.133 117.907-139.582 232.638-139.582 129.658 0 220.807 63.916 220.807 153.24 0 74.397-53.991 116.557-182.379 147.682l-114.731 27.234c-17.944 3.732-34.142 8.734-50.259 13.656h-359.596z" />
<glyph unicode="&#xe938;" glyph-name="underline" d="M511.707 112.049c-205.842 0-333.677 123.799-333.677 303.809v491.305c0 32.142 20.107 52.836 52.763 52.836 32.069 0 53.35-20.694 53.35-52.836v-482.646c0-127.835 84.245-214.354 227.564-214.354 143.906 0 228.224 86.593 228.224 214.354v482.719c0 32.069 20.034 52.689 52.689 52.689 32.142 0 53.35-20.621 53.35-52.763v-491.305c0-180.011-127.321-303.809-334.264-303.809zM211.861-63.999c-0.066 0-0.144-0.001-0.221-0.001-18.522 0-33.537 15.015-33.537 33.537 0 0.103 0 0.206 0.001 0.31v-0.016c0 19.52 15.411 34.417 33.757 34.417h599.693c18.933 0 34.417-14.897 34.417-34.417s-15.484-33.757-34.417-33.757h-599.693z" />
<glyph unicode="&#xe939;" glyph-name="clear" d="M512-64c-280.137 0-512 231.863-512 512 0 279.625 231.424 512 511.488 512 279.625 0 512.512-232.375 512.512-512 0-280.137-232.375-512-512-512zM512 21.358c0.479-0.002 1.045-0.003 1.612-0.003 234.739 0 425.033 190.294 425.033 425.033 0 0.567-0.001 1.134-0.003 1.7v-0.088c0 0.065 0 0.143 0 0.22 0 235.507-190.916 426.423-426.423 426.423-0.257 0-0.514 0-0.772-0.001h0.040c-0.349 0.001-0.762 0.002-1.176 0.002-234.457 0-424.521-190.065-424.521-424.521 0-0.746 0.002-1.492 0.006-2.238v0.115c-0.003-0.609-0.005-1.33-0.005-2.051 0-234.497 190.097-424.594 424.594-424.594 0.567 0 1.135 0.001 1.702 0.003h-0.088zM340.334 235.154c-22.236 0.083-40.23 18.127-40.23 40.375 0 0.103 0 0.206 0.001 0.309v-0.016c0 11.045 4.096 21.065 12.142 28.087l142.555 143.067-142.629 143.067c-7.39 6.825-12.002 16.563-12.002 27.379 0 0.249 0.002 0.497 0.007 0.745l-0.001-0.037c0 22.674 17.554 39.717 40.155 39.717 10.971 0 20.041-3.511 27.575-11.557l143.579-143.067 144.091 143.579c6.896 7.391 16.694 11.999 27.568 11.999 0.182 0 0.365-0.001 0.546-0.004h-0.028c22.089 0 40.229-17.554 40.229-40.155-0.027-11.058-4.679-21.024-12.124-28.070l-0.018-0.017-143.067-143.579 142.629-142.555c7.402-7.164 11.996-17.19 11.996-28.288 0-0.084 0-0.167-0.001-0.251v0.013c0-0.001 0-0.003 0-0.004 0-22.295-17.908-40.407-40.124-40.736h-0.031c-11.443 0.123-21.742 4.919-29.098 12.567l-0.013 0.013-142.555 143.067-142.555-143.067c-7.111-7.744-17.284-12.581-28.585-12.581-0.005 0-0.010 0-0.014 0h0.001z" />
<glyph unicode="&#xe93a;" glyph-name="upload" d="M614.4 960l307.2-307.2v-614.4c0-56.554-45.846-102.4-102.4-102.4v0h-614.4c-56.554 0-102.4 45.846-102.4 102.4v0 819.2c0 56.554 45.846 102.4 102.4 102.4v0h409.6zM819.2 38.4v563.2h-256v256h-358.4v-819.2h614.4zM512 473.6l-204.8-204.8h128v-153.6h153.6v153.6h128l-204.8 204.8z" />
<glyph unicode="&#xe93b;" glyph-name="icon-fb" horiz-adv-x="576" d="M364.512-42.021v447.232h151.36l22.656 174.272h-174.016v111.168c0 50.56 13.952 84.736 87.232 84.736h92.928v155.712c-39.301 4.407-84.863 6.921-131.012 6.921-1.663 0-3.326-0.003-4.988-0.010l0.256 0.001c-134.272 0-225.92-81.28-225.92-230.080v-128.448h-151.68v-174.272h151.808v-447.232h181.376z" />
<glyph unicode="&#xe93c;" glyph-name="menu" d="M149.333 176h725.333c24.933 0 45.333 20.4 45.333 45.333s-20.4 45.333-45.333 45.333h-725.333c-24.933 0-45.333-20.4-45.333-45.333s20.4-45.333 45.333-45.333zM149.333 402.667h725.333c24.933 0 45.333 20.4 45.333 45.333s-20.4 45.333-45.333 45.333h-725.333c-24.933 0-45.333-20.4-45.333-45.333s20.4-45.333 45.333-45.333zM104 674.667c0-24.933 20.4-45.333 45.333-45.333h725.333c24.933 0 45.333 20.4 45.333 45.333s-20.4 45.333-45.333 45.333h-725.333c-24.933 0-45.333-20.4-45.333-45.333z" />
<glyph unicode="&#xe93e;" glyph-name="icon-vk" horiz-adv-x="1862" d="M911.372-57.012h109.754s32.954 3.724 49.711 21.411c15.546 16.291 14.895 47.104 14.895 47.104s-1.955 143.36 65.815 164.212c67.212 20.759 153.786-138.426 245.481-199.401 69.073-46.545 121.949-36.492 121.949-36.492l244.829 3.165s127.907 7.54 67.212 105.658c-5.213 8.192-35.561 72.332-182.179 204.986-153.6 139.078-133.027 116.364 52.317 356.631 112.361 146.525 157.603 235.241 143.36 273.594-13.498 36.492-96.163 26.996-96.163 26.996l-275.828-1.862s-20.573 2.513-35.468-6.33c-14.895-8.751-24.576-28.858-24.576-28.858s-43.939-113.199-102.028-209.455c-122.694-203.124-171.753-213.83-191.767-201.263-46.545 29.603-34.909 118.225-34.909 181.155 0 196.794 30.348 278.621-59.392 299.939-29.789 6.982-52.317 12.009-128.465 12.567-98.211 1.303-181.527 0-228.724-22.621-31.651-15.081-55.575-48.407-40.681-50.269 18.060-2.513 59.392-10.705 81.361-39.657 28.393-37.702 27.183-121.391 27.183-121.391s16.105-231.424-38.167-260.375c-37.423-19.456-88.436 20.759-197.632 205.079-56.134 94.301-98.118 198.749-98.118 198.749s-8.378 19.456-22.621 30.161c-17.408 12.567-42.636 16.384-42.636 16.384l-261.585-1.862s-39.377-1.303-53.62-17.78c-12.847-15.081-1.21-45.242-1.21-45.242s204.614-467.968 437.155-703.023c213.178-216.343 454.749-201.914 454.749-201.914z" />
<glyph unicode="&#xe93f;" glyph-name="icon-schedule" horiz-adv-x="967" d="M0 38.485c0-54.812 43.918-99.385 97.934-99.385h771.243c54.016 0 97.934 44.572 97.934 99.385v696.804h-967.111v-696.832zM192.569 456.761h581.973c11.548 0 20.764-9.33 20.764-21.049 0.001-0.093 0.002-0.203 0.002-0.313 0-11.474-9.294-20.778-20.765-20.793h-581.974c-11.472 0.015-20.766 9.319-20.766 20.793 0 0.1 0.001 0.2 0.002 0.3v-0.015c0 11.748 9.216 21.077 20.764 21.077zM192.569 260.124h336.839c11.577 0 20.764-9.33 20.764-21.077 0.001-0.085 0.002-0.184 0.002-0.284 0-11.474-9.294-20.778-20.765-20.793h-336.84c-11.472 0.015-20.766 9.319-20.766 20.793 0 0.090 0.001 0.18 0.002 0.27v-0.014c0 11.776 9.188 21.106 20.764 21.106zM869.177 960h-132.039v-66.844c0.001-0.093 0.002-0.203 0.002-0.313 0-11.474-9.294-20.778-20.765-20.793h-0.001c-11.472 0.015-20.766 9.319-20.766 20.793 0 0.1 0.001 0.2 0.002 0.3v-0.015 66.873h-424.42v-66.844c0.001-0.085 0.002-0.184 0.002-0.284 0-11.474-9.294-20.778-20.765-20.793h-0.001c-11.472 0.015-20.766 9.319-20.766 20.793 0 0.1 0.001 0.2 0.002 0.3v-0.015 66.844h-131.726c-54.016 0-97.934-44.601-97.934-99.385v-83.115h967.111v83.115c0 54.812-43.918 99.356-97.934 99.356z" />
<glyph unicode="&#xe940;" glyph-name="icon-kpi" horiz-adv-x="1422" d="M1422.222 833.081v-428.715s-92.132-18.005-111.047-20.565c-18.944-2.276-78.364-21.447-121.401 19.712-66.56 63.431-302.478 297.244-302.478 297.244s-40.732 39.708-106.155 5.404c-59.989-31.431-148.935-77.71-186.254-95.716-70.315-37.177-128.569 21.703-128.569 66.844 0 34.901 21.817 58.596 53.106 76.032 84.651 51.172 263.424 150.926 337.749 190.35 45.34 24.007 77.767 25.998 139.748-25.998 76.345-64.028 144.356-122.311 144.356-122.311s22.101-18.603 57.685-11.179c86.955 18.318 223.26 48.896 223.26 48.896zM482.418 106.581c11.463 29.156 7.737 62.009-14.364 84.309-19.797 19.996-48.498 25.429-75.776 19.143 7.765 27.164 3.442 56.036-16.356 76.316-19.797 19.996-48.498 25.429-75.748 19.143 7.737 27.164 3.413 56.036-16.356 76.316-31.289 31.431-84.935 30.009-120.235-3.413-35.015-33.479-57.685-94.35-26.112-130.076 31.289-35.413 67.129-13.995 94.407-7.68-7.765-27.164-30.436-52.338-2.304-87.751 28.132-35.442 67.129-14.023 94.72-7.737-7.765-26.852-29.582-54.585-2.588-87.438 27.25-32.882 72.021-15.445 101.262-6.286-11.463-29.156-35.84-60.587-4.267-95.744 31.289-35.442 103.595-19.143 138.866 14.564 35.3 33.451 38.457 86.613 7.765 118.329-21.817 22.016-53.675 27.136-82.944 18.005zM1126.059 329.5c-255.118 254.066-135.14 134.599-272.327 271.502 0 0-41.33 40.875-95.573 17.152-38.144-16.583-87.211-39.452-124.245-56.604-40.761-21.134-69.746-27.705-83.513-27.705-78.62 0.569-142.336 63.431-142.336 141.454 0 50.603 26.994 94.891 67.442 119.751 56.832 39.168 187.108 108.060 187.108 108.060s-39.879 50.29-126.862 50.29c-86.926 0-268.857-118.613-268.857-118.613s-51.655-32.882-125.156-3.129l-141.739 49.095v-490.695s40.476-11.719 76.914-26.567c8.713 24.58 22.354 45.529 39.842 62.542l0.037 0.036c60.274 57.173 160.427 57.742 215.239 1.422 15.908-16.178 27.698-36.452 33.643-59.096l0.206-0.922c22.935-7.138 42.529-19.365 58.23-35.417l0.025-0.025c15.949-16.196 27.82-36.454 33.918-59.079l0.215-0.938c22.944-7.126 42.548-19.344 58.259-35.389l0.023-0.024c17.312-17.6 29.895-39.902 35.661-64.815l0.179-0.921c23.971-7.063 44.482-19.627 60.852-36.276l0.019-0.019c32.996-33.735 44.772-79.474 37.575-123.733h0.284c0.569-0.597 20.395-22.898 32.711-35.186 24.405-24.292 64-24.292 88.405 0 11.241 11.276 18.192 26.835 18.192 44.018s-6.95 32.742-18.193 44.019l0.002-0.002c-0.853 0.853-87.808 91.449-80.64 98.304 6.884 6.855 117.646-107.748 119.666-109.739 24.377-24.292 64-24.292 88.377 0 11.303 11.248 18.298 26.816 18.298 44.018s-6.995 32.77-18.295 44.015l-0.003 0.002c-1.138 1.138-6.315 5.973-8.021 7.68 0 0-109.625 97.479-101.291 105.756 8.306 8.306 144.612-118.329 144.896-118.329 24.405-21.988 62.293-21.703 85.817 1.735 22.955 22.869 23.524 58.88 3.129 83.172-0.284 1.422-103.851 108.885-95.829 117.191 8.334 8.249 110.478-96.91 110.791-96.91 24.092-24.292 64-24.292 88.377 0 11.303 11.248 18.298 26.816 18.298 44.018s-6.995 32.77-18.295 44.015l-0.003 0.002c-0.569 0.569-0.853 0.569-1.422 0.853z" />
<glyph unicode="&#xe941;" glyph-name="icon-adaptation" horiz-adv-x="1081" d="M889.173 190.009l-172.459 40.789-14.791 55.609c46.251 43.406 77.71 102.798 87.211 163.783 25.543 6.827 45.397 27.591 48.754 53.618l11.207 85.39c0.322 2.362 0.506 5.091 0.506 7.863 0 16.224-6.297 30.977-16.58 41.948l0.031-0.034c-7.307 7.823-16.36 13.92-26.545 17.68l-0.478 0.154 4.21 80.384 16.896 16.014c25.316 25.6 46.45 69.404 2.532 132.978-33.991 49.010-91.42 73.813-170.78 73.813-31.26 0-103.452 0-170.809-42.809-191.687-3.783-217.856-88.178-217.856-170.581 0-19.2 4.836-62.208 8.249-88.405-11.634-3.413-22.187-9.813-30.208-18.603-10.503-11.085-16.961-26.094-16.961-42.612 0-2.747 0.179-5.452 0.525-8.104l-0.033 0.313 11.207-85.39c3.584-27.819 25.941-49.806 54.244-55.012 9.301-58.596 39.253-116.196 82.773-158.805l-15.644-59.392-172.658-40.59c-113.010-26.624-191.716-122.396-191.716-232.619 0-11.804 10.126-21.39 22.585-21.39h1035.947c12.43 0 22.556 9.586 22.556 21.39-0.199 110.222-78.933 205.995-191.886 232.619z" />
<glyph unicode="&#xe942;" glyph-name="icon-awareness" horiz-adv-x="1162" d="M806.358 314.88c68.082 0 123.24 57.427 123.24 128.304v388.483c0 70.85-55.185 128.277-123.24 128.277h-683.119c-68.082 0-123.24-57.427-123.24-128.277v-388.483c0-70.85 55.158-128.304 123.24-128.304h89.586v-134.365c0-16.301 9.41-30.969 23.884-37.473 4.705-2.048 9.77-3.266 14.862-3.266 10.157 0 19.926 4.096 27.399 11.818l156.478 162.899 370.909 0.415zM1054 623.962h-62.215v-180.805c0-106.275-83.304-193.010-185.427-193.010h-345.088l-72.372-75.333c8.579-52.944 53.193-93.267 106.413-93.267h300.475l125.98-131.127c7.445-7.749 17.214-11.818 27.399-11.818 5.065 0 10.157 0.83 14.862 3.266 14.474 6.089 23.856 20.757 23.856 37.473v102.621h66.505c59.503 0 107.99 50.48 107.99 112.391v318.049c-0.387 61.080-48.903 111.561-108.378 111.561z" />
<glyph unicode="&#xe943;" glyph-name="icon-communication" horiz-adv-x="830" d="M757.705-36.38h-684.945c-8.552 2.906-17.491 4.677-25.462 8.746-33.515 17.131-47.298 45.554-47.298 82.501 0.194 220.298 0.194 440.375 0.194 660.674 0 28.229-0.581 56.431 0.775 84.632 1.937 40.49 35.619 74.531 76.108 75.887 42.012 1.384 84.217 0.581 126.478 0.581 1.135 0 2.297-0.554 4.068-1.162 0-25.462-0.194-50.785 0-76.080 0.554-50.979 33.847-87.76 82.695-88.341 83.276-0.969 166.746-0.775 250.022 0 45.526 0.387 79.595 35.978 81.533 75.693 0.969 22.39 0.775 44.752 0.969 67.141v21.974c2.546 0.387 3.875 0.775 5.065 0.775h119.67c18.1 0 34.429-5.424 48.848-16.329 24.106-18.294 33.847-43.008 33.847-72.787-0.194-141.478 0-282.735 0-424.213 0-103.728-0.194-207.623 0-311.351 0-21.781-5.452-41.458-19.65-58.562-14.004-16.744-32.491-24.714-52.916-29.779zM663.718 296.337v81.366h-496.972v-81.366h496.972zM580.636 211.926h-413.696v-81.533h413.696v81.533zM166.552 462.557h247.891v81.726h-247.891v-81.726zM414.25 773.134h-98.249c-28.617 0-45.72 16.329-46.108 44.752-0.232 14.609-0.365 31.851-0.365 49.124s0.132 34.515 0.396 51.725l-0.031-2.601c0.387 27.261 17.878 43.838 45.111 43.838h200.234c27.454 0 44.752-16.55 45.139-43.783 0.581-33.1 0.581-66.145 0-99.245-0.387-27.261-17.712-43.589-45.111-43.783-33.681-0.194-67.335 0-101.016 0z" />
<glyph unicode="&#xe944;" glyph-name="icon-profile" d="M961.94 911.037c-32.368 30.333-76.023 48.963-124.029 48.963-0.032 0-0.064 0-0.095 0h-651.636c-0.254 0.001-0.555 0.002-0.857 0.002-101.378 0-183.746-81.392-185.321-182.395l-0.002-0.148v-654.444c0-102.4 84.237-187.015 186.206-187.015h651.587c101.969 0 186.206 84.615 186.206 187.015v649.971c0 0.135 0.001 0.295 0.001 0.455 0 54.693-23.92 103.8-61.868 137.429l-0.192 0.167zM684.894 630.515c0-95.69-77.608-173.622-172.894-173.622-95.313 0-172.894 77.932-172.894 173.649s77.608 173.622 172.894 173.622c93.076 2.237 172.894-75.668 172.894-173.622zM312.509 69.605c-0.040 0-0.088 0-0.136 0-43.978 0-79.629 35.651-79.629 79.629 0 0.171 0.001 0.341 0.002 0.511v-0.026 44.544c0 97.927 79.764 175.859 177.314 175.859h201.647c97.549 0 175.104-77.932 175.104-175.859v-44.544c0.001-0.152 0.002-0.332 0.002-0.512 0-43.978-35.651-79.629-79.629-79.629-0.048 0-0.096 0-0.144 0h-394.556z" />
<glyph unicode="&#xe945;" glyph-name="icon-mindmap" horiz-adv-x="1001" d="M468.082 269.665c-56.719-15.008-97.849-65.868-97.849-126.334 0-0.002 0-0.003 0-0.005v0-65.308c0-71.976 58.596-130.64 130.48-130.64 71.908 0 130.503 58.664 130.503 130.617v65.308c0 60.848-41.62 111.684-97.872 126.362v134.94h260.779c17.977 0 32.631-14.677 32.631-32.677v-102.263c-56.73-15-97.871-65.865-97.872-126.339v0-65.308c0-71.976 58.596-130.64 130.503-130.64 71.885 0 130.48 58.664 130.48 130.617v65.308c0 60.848-41.597 111.684-97.849 126.362v102.059c-0.052 54.063-43.839 97.882-97.885 97.985h-260.971v156.626c56.719 15.008 97.849 65.868 97.849 126.334 0 0.010 0 0.019 0 0.029v-0.002 65.308c0 71.953-58.414 130.617-130.298 130.617s-130.48-58.664-130.48-130.617v-65.308c0-60.848 41.597-111.684 97.849-126.362v-156.626h-260.938c-54.066-0.091-97.865-43.914-97.917-97.98v-102.268c-56.719-15.008-97.849-65.868-97.849-126.334 0-0.002 0-0.003 0-0.005v0-65.308c0-71.976 58.596-130.617 130.48-130.617 71.908 0 130.503 58.664 130.503 130.617v65.308c0 60.826-41.62 111.662-97.849 126.339v102.263c0 18 14.632 32.677 32.609 32.677h260.961v-134.736z" />
<glyph unicode="&#xe946;" glyph-name="icon-call" d="M778.531 282.613c-33.451 33.031-75.198 33.031-108.439 0-25.598-25.24-50.257-49.958-74.713-74.876l-0.957-0.978c-6.827-7.037-12.577-8.533-20.874-3.833-16.41 8.927-33.871 16.2-49.677 25.994-73.518 46.211-135.089 105.682-189.65 172.583-27.070 33.241-51.147 68.818-68.004 108.885-3.413 8.087-2.757 13.391 3.86 20.007 25.364 24.523 50.071 49.651 75.015 74.805 34.737 34.921 34.737 75.855-0.21 111.012-19.824 20.007-39.647 39.621-59.471 59.655-20.48 20.454-40.697 41.118-61.387 61.361-33.451 32.584-75.225 32.584-108.439-0.21-25.6-25.154-50.097-50.937-76.091-75.645-24.103-22.791-36.234-50.701-38.807-83.312-4.043-53.038 8.953-103.135 27.307-151.92 37.494-100.982 94.602-190.7 163.84-272.935 93.578-111.222 205.246-199.207 335.898-262.722 58.814-28.541 119.755-50.491 186.027-54.088 45.607-2.573 85.255 8.927 116.999 44.505 21.74 24.287 46.264 46.474 69.264 69.685 34.107 34.501 34.317 76.275 0.42 110.356-40.521 40.66-80.239 80.311-120.057 119.861l-1.825 1.811zM737.859 452.414l78.638 13.443c-13.086 74.743-48.174 139.687-98.243 189.616l-0.008 0.008c-52.361 52.691-121.373 88.782-198.479 99.716l-1.858 0.216-11.054-79.032c61.143-8.668 114.578-36.605 155.138-77.367l0.011-0.011c38.712-38.594 65.82-88.807 75.646-144.965l0.235-1.624zM860.818 794.193c-90.795 90.768-205.64 148.086-332.459 165.757l-11.080-79.032c113.192-16.076 212.12-67.771 287.256-143.187l0.015-0.016c71.842-71.487 122.162-164.543 140.428-268.635l0.438-3.014 78.638 13.417c-21.823 124.050-80.104 231.822-163.222 314.695l-0.014 0.014z" />
<glyph unicode="&#xe947;" glyph-name="icon-info" d="M188.49 482.202h68.608v-68.608h-68.608v68.637zM-0.102 46.387c0.067-60.938 49.449-110.321 110.381-110.387h803.408c60.951 0.050 110.35 49.439 110.416 110.381v596.618h-1024.205v-596.612zM415.496 542.208h449.829c16.589 0 30.018-13.4 30.018-30.018 0-16.589-13.429-29.989-30.018-29.989h-449.829c-0.009 0-0.019 0-0.029 0-16.546 0-29.959 13.413-29.959 29.959 0 0.010 0 0.021 0 0.031v-0.002c0 16.618 13.4 30.018 29.989 30.018zM415.496 413.798h449.829c16.562 0 29.989-13.426 29.989-29.989s-13.426-29.989-29.989-29.989h-449.829c-0.009 0-0.019 0-0.029 0-16.546 0-29.959 13.413-29.959 29.959 0 0.010 0 0.021 0 0.031v-0.002c0 16.589 13.4 29.989 29.989 29.989zM128.483 512.19c0 16.618 13.429 30.018 30.018 30.018h128.585c16.618 0 30.018-13.4 30.018-30.018v-128.556c0-16.618-13.4-30.018-30.018-30.018h-128.585c-0.009 0-0.019 0-0.029 0-16.546 0-29.959 13.413-29.959 29.959 0 0.021 0 0.041 0 0.062v-0.003 128.585zM158.501 285.213h706.999c16.589 0 29.989-13.429 29.989-30.018s-13.4-29.989-29.989-29.989h-707.028c-0.009 0-0.019 0-0.029 0-16.546 0-29.959 13.413-29.959 29.959 0 0.010 0 0.021 0 0.031v-0.002c0 16.589 13.4 30.018 29.989 30.018zM158.501 156.599h706.999c16.562 0 29.989-13.426 29.989-29.989s-13.426-29.989-29.989-29.989h-707.028c-0.009 0-0.019 0-0.029 0-16.546 0-29.959 13.413-29.959 29.959 0 0.010 0 0.021 0 0.031v-0.002c0 16.589 13.4 29.989 29.989 29.989zM913.511 960h-803.226c-0.009 0-0.019 0-0.029 0-60.949 0-110.358-49.409-110.358-110.358 0-0.010 0-0.021 0-0.031v0.002-146.812h1024v146.812c0 0.009 0 0.019 0 0.029 0 60.949-49.409 110.358-110.358 110.358-0.010 0-0.021 0-0.031 0h0.002zM736.885 771.408h-449.975c-0.017 0-0.038 0-0.059 0-16.546 0-29.959 13.413-29.959 29.959 0 0.010 0 0.021 0 0.031v-0.002c0 16.589 13.4 29.989 30.018 29.989h449.799c16.589 0 29.989-13.4 29.989-29.989s-13.195-29.989-29.813-29.989z" />
<glyph unicode="&#xe948;" glyph-name="icon-case" horiz-adv-x="1245" d="M224.394-64h796.617v831.488h-177.567v74.226c0 65.232-52.75 118.286-117.677 118.286h-206.128c-64.899 0-117.677-53.054-117.677-118.286v-74.226h-177.567v-831.488zM720.841 211.179l-47.768-37.639 3.792-60.886c0.040-0.604 0.062-1.31 0.062-2.021 0-18.068-14.586-32.729-32.625-32.85h-0.012c-6.365 0-12.731 1.854-18.211 5.535l-50.37 34.041-56.458-22.445c-11.541-4.594-24.687-2.214-33.903 6.172-6.611 6.045-10.743 14.707-10.743 24.335 0 3.2 0.456 6.294 1.308 9.219l-0.058-0.233 16.605 58.672-38.691 47.021c-4.653 5.64-7.475 12.942-7.475 20.903 0 4.858 1.051 9.47 2.938 13.622l-0.084-0.207c5.041 11.146 15.856 18.868 28.526 19.371l0.063 0.002 60.637 2.269 32.547 51.477c5.861 9.204 16.011 15.221 27.567 15.221 14.019 0 25.969-8.855 30.562-21.277l0.073-0.226 20.895-57.289 58.783-15.194c14.197-3.871 24.462-16.649 24.462-31.826 0-10.404-4.824-19.681-12.358-25.717l-0.065-0.050zM878.149 664.922c57.898 0 95.315-22.362 95.315-56.957s-37.418-56.929-95.315-56.929c-57.898 0-95.315 22.334-95.315 56.929s37.418 56.957 95.315 56.957zM467.248 841.714c0 0.025 0 0.054 0 0.083 0 28.973 23.432 52.473 52.38 52.583h206.139c28.958-0.11 52.39-23.61 52.39-52.583 0-0.029 0-0.059 0-0.088v0.004-74.226h-310.909v74.226zM303.907 467.041l91.053 50.84c4.571 2.602 10.042 4.137 15.872 4.137 12.23 0 22.882-6.751 28.435-16.729l0.085-0.166 50.563-91.523c2.587-4.592 4.111-10.081 4.111-15.926 0-12.25-6.694-22.937-16.624-28.602l-0.162-0.085-91.053-50.84c-4.573-2.606-10.049-4.143-15.884-4.143-12.221 0-22.868 6.741-28.423 16.709l-0.085 0.165-50.563 91.551c-2.587 4.592-4.111 10.081-4.111 15.926 0 12.25 6.694 22.937 16.624 28.602l0.162 0.085zM1245.405 682.911v-662.334c0-0.041 0-0.090 0-0.139 0-46.527-37.631-84.265-84.118-84.438h-74.99v831.488h74.973c46.384 0 84.134-37.916 84.134-84.549zM159.107-64h-74.973c-46.503 0.173-84.134 37.911-84.134 84.438 0 0.049 0 0.098 0 0.147v-0.008 662.362c0 0.033 0 0.072 0 0.111 0 46.527 37.631 84.265 84.118 84.438h74.989v-831.488z" />
<glyph unicode="&#xe949;" glyph-name="icon-star" horiz-adv-x="1455" d="M738.331 807.828l93.319-189.117c1.752-3.53 5.12-5.982 9.054-6.548l208.707-30.343c5.842-0.884 10.268-5.87 10.268-11.89 0-3.364-1.382-6.406-3.61-8.588l-0.002-0.002-151.013-147.213c-2.247-2.19-3.641-5.247-3.641-8.629 0-0.702 0.060-1.39 0.175-2.060l-0.010 0.072 35.651-207.872c0.108-0.604 0.169-1.3 0.169-2.009 0-6.638-5.381-12.019-12.019-12.019-2.032 0-3.946 0.504-5.624 1.394l0.065-0.032-186.664 98.142c-1.622 0.867-3.547 1.376-5.592 1.376s-3.97-0.509-5.657-1.408l0.065 0.032-186.664-98.142c-1.62-0.868-3.545-1.378-5.588-1.378-6.638 0-12.019 5.381-12.019 12.019 0 0.715 0.063 1.416 0.182 2.097l-0.011-0.072 35.651 207.872c0.11 0.61 0.173 1.312 0.173 2.029 0 3.366-1.387 6.408-3.62 8.585l-0.002 0.002-151.013 147.213c-2.23 2.184-3.612 5.225-3.612 8.59 0 6.020 4.426 11.006 10.202 11.882l0.067 0.008 208.707 30.343c3.981 0.593 7.278 3.070 8.996 6.479l0.031 0.069 93.346 189.117c1.998 4.006 6.066 6.709 10.765 6.709s8.768-2.703 10.734-6.64l0.031-0.069zM618.981-27.702c-2.192 0.006-4.305 0.331-6.3 0.93l0.156-0.040c-113.6 33.577-209.557 97.574-281.492 182.554l-0.701 0.85c-73.293 86.203-121.907 195.456-133.738 315.513l-0.19 2.386c-1.75 16.925-2.748 36.572-2.748 56.451 0 82.214 17.069 160.441 47.856 231.331l-1.453-3.757c3.343 8.146 11.213 13.779 20.399 13.779 12.144 0 21.989-9.845 21.989-21.989 0-3.295-0.725-6.42-2.023-9.226l0.056 0.136c-27.091-62.025-42.854-134.298-42.854-210.252 0-18.378 0.923-36.541 2.725-54.444l-0.184 2.256c11.108-113.154 56.035-214.118 124.4-294.541l-0.631 0.761c67.133-79.362 155.835-138.536 257.058-168.613l3.793-0.967c9.254-2.733 15.892-11.155 15.892-21.127 0-12.144-9.845-21.989-21.989-21.989-0.007 0-0.014 0-0.021 0h0.001zM282.301 163.921c11.047 8.787 20.208 19.4 27.149 31.454l0.283 0.533c0.593 1.051 6.198 14.498 6.818 14.552-0.593-0.054-7.572 12.773-8.273 13.743-8.307 11.579-18.459 21.241-30.124 28.76l-0.434 0.262c-68.258 43.197-148.399 8.596-188.362-54.434 46.215-58.611 129.482-84.803 192.943-34.87zM89.357 198.791c46.215-58.611 129.455-84.83 192.943-34.87 6.467 5.12 12.396 10.995 17.57 17.462-65.159-35.22-142.255-11.345-192.027 41.499-6.597-7.17-12.687-15.041-18.074-23.407l-0.412-0.683zM177.987 374.973c12.935 5.659 24.792 13.959 34.627 24.091 0.808 0.862 9.647 12.477 10.24 12.342-0.593 0.135-4.123 14.282-4.581 15.414-5.371 13.845-12.919 25.722-22.345 35.824l0.060-0.064c-55.242 58.934-141.474 45.541-195.988-5.443 30.019-68.312 104.017-114.58 177.987-82.189zM0.027 457.162c29.992-68.339 104.017-114.607 177.987-82.189 7.545 3.315 14.767 7.545 21.423 12.504-71.949-17.758-140.557 24.711-175.481 88.387-8.984-5.859-16.811-12.016-24.053-18.791l0.097 0.090zM461.204 3.368c7.384 12.045 12.396 25.6 14.713 39.532 0.189 1.159 0.808 15.737 1.347 15.98-0.539-0.243-11.507 9.378-12.477 10.051-11.040 7.656-24.013 13.446-37.992 16.57l-0.731 0.137c-78.956 16.977-142.228-43.17-157.992-116.116 63.596-39.074 150.797-34.897 193.132 33.846zM268.072-30.477c63.596-39.074 150.797-34.924 193.105 33.846 4.035 6.449 7.589 13.876 10.28 21.705l0.23 0.769c-49.044-55.565-129.617-59.742-194.56-27.325-3.475-8.137-6.59-17.825-8.837-27.841l-0.218-1.154zM160.364 583.68c1.002-0.033 2.181-0.051 3.364-0.051 13.734 0 26.879 2.519 38.998 7.121l-0.755-0.252c1.132 0.404 14.093 7.114 14.579 6.737-0.485 0.377 2.425 14.659 2.533 15.845 0.23 2.663 0.361 5.763 0.361 8.893 0 11.788-1.857 23.143-5.293 33.787l0.217-0.778c-24.441 76.962-108.059 102.077-179.2 79.576-2.371-74.617 44.49-148.264 125.197-150.905zM35.166 734.531c-2.371-74.59 44.463-148.211 125.197-150.851 8.246-0.269 16.573 0.431 24.711 2.048-72.569 14.983-116.17 82.89-120.266 155.379-9.971-1.293-19.941-3.503-29.642-6.575zM227.166 788.696c4.689-13.312 12.072-25.762 21.423-36.325 0.808-0.889 11.722-10.563 11.533-11.156 0.189 0.593 14.552 3.045 15.71 3.395 13.501 4.042 26.355 10.698 37.349 19.564 62.922 50.607 56.051 137.647 9.351 195.827-70.413-24.792-122.125-95.124-95.367-171.304zM322.533 960c-70.413-24.792-122.125-95.124-95.367-171.304 2.749-7.815 6.413-15.306 10.86-22.312-12.288 73.081 35.22 138.294 101.322 168.34-5.266 9.618-10.827 17.888-17.045 25.606l0.257-0.329zM836.177-27.702c-12.088 0.094-21.85 9.915-21.85 22.015 0 9.919 6.559 18.306 15.577 21.059l0.156 0.041c105.014 31.049 193.715 90.222 260.202 168.793l0.649 0.787c67.737 79.66 112.665 180.626 123.594 291.576l0.176 2.204c1.617 15.642 2.539 33.799 2.539 52.171 0 75.951-15.763 148.22-44.195 213.715l1.342-3.472c-0.957 2.375-1.512 5.129-1.512 8.012 0 12.144 9.845 21.989 21.989 21.989 8.783 0 16.363-5.149 19.887-12.594l0.057-0.134c37.996-88.926 53.086-187.123 43.655-283.998-12.025-122.442-60.639-231.694-134.611-318.722l0.683 0.824c-72.641-85.836-168.608-149.835-278.117-182.358l-4.103-1.046c-1.83-0.556-3.934-0.88-6.112-0.889h-0.005zM1172.857 163.921c-11.047 8.786-20.209 19.4-27.149 31.453l-0.283 0.533c-0.593 1.051-6.198 14.498-6.818 14.552 0.62-0.054 7.572 12.773 8.273 13.743 8.306 11.579 18.459 21.242 30.124 28.76l0.434 0.262c68.258 43.197 148.399 8.596 188.362-54.434-46.188-58.611-129.455-84.803-192.943-34.87zM1365.773 198.791c-46.188-58.611-129.455-84.83-192.916-34.87-6.576 5.209-12.35 10.941-17.434 17.253l-0.163 0.209c65.186-35.22 142.282-11.345 192.054 41.499 6.791-7.411 13.016-15.495 18.459-24.091zM1277.171 374.973c-12.935 5.659-24.792 13.959-34.627 24.091-0.808 0.862-9.647 12.477-10.24 12.342 0.593 0.135 4.123 14.282 4.554 15.414 5.039 13.177 12.665 25.465 22.312 35.759 55.242 58.934 141.474 45.541 195.988-5.443-30.019-68.312-104.017-114.58-177.987-82.189zM1455.158 457.162c-30.019-68.339-104.017-114.607-178.014-82.189-8.169 3.64-15.201 7.82-21.673 12.704l0.277-0.2c71.949-17.758 140.531 24.711 175.454 88.387 8.461-5.497 16.492-11.749 23.929-18.701zM993.954 3.368c-7.056 11.344-12.208 24.648-14.622 38.884l-0.091 0.648c-0.189 1.159-0.808 15.737-1.347 15.98 0.539-0.243 11.507 9.378 12.477 10.051 11.668 7.976 24.926 13.743 38.723 16.707 78.956 16.977 142.228-43.17 157.992-116.116-63.596-39.074-150.797-34.897-193.132 33.846zM1187.085-30.477c-63.596-39.074-150.797-34.924-193.105 33.846-4.027 6.448-7.573 13.876-10.254 21.705l-0.229 0.769c49.017-55.565 129.617-59.742 194.56-27.325 3.827-9.297 6.872-19.025 9.027-28.995zM1294.821 583.68c-1.010-0.033-2.197-0.052-3.388-0.052-13.734 0-26.88 2.52-39 7.122l0.755-0.252c-1.105 0.404-14.067 7.114-14.552 6.737 0.485 0.377-2.425 14.659-2.533 15.845-0.229 2.659-0.359 5.753-0.359 8.878 0 11.793 1.856 23.153 5.292 33.804l-0.217-0.778c24.414 76.962 108.032 102.077 179.2 79.576 2.344-74.617-44.517-148.264-125.224-150.905zM1419.965 734.531c2.398-74.59-44.463-148.211-125.171-150.851-1.027-0.035-2.233-0.055-3.444-0.055-7.526 0-14.873 0.766-21.968 2.223l0.701-0.12c72.569 14.983 116.143 82.89 120.239 155.379 9.971-1.293 19.941-3.503 29.642-6.575zM1222.306 788.696c-5.046-14.028-12.324-26.104-21.52-36.436l0.097 0.111c-0.808-0.889-11.695-10.563-11.533-11.156-0.189 0.593-14.552 3.045-15.683 3.395-14.349 4.348-26.804 11.042-37.588 19.729l0.212-0.165c-62.895 50.58-56.051 137.62-9.351 195.827 70.413-24.792 122.125-95.124 95.367-171.304zM1126.939 960c70.413-24.792 122.099-95.124 95.34-171.304-2.695-7.815-6.387-15.306-10.833-22.312 12.288 73.081-35.22 138.294-101.322 168.34 4.797 8.839 10.456 17.327 16.815 25.277z" />
<glyph unicode="&#xe94a;" glyph-name="icon-checklist" horiz-adv-x="1052" d="M1007.976 960h-964.248c-23.912 0-43.728-19.843-43.728-43.755v-936.517c0-24.189 19.511-43.728 43.7-43.728h964.248c24.189 0 43.7 19.539 43.7 43.755v936.517c0.028 23.884-19.788 43.728-43.672 43.728zM355.715 183.697l-85.961-86.071c-7.896-7.911-18.813-12.806-30.872-12.806s-22.976 4.894-30.871 12.805l-34.955 35.010c-7.965 7.892-12.896 18.834-12.896 30.928s4.931 23.035 12.893 30.924l0.003 0.003c7.871 7.965 18.796 12.898 30.872 12.898s23.001-4.933 30.868-12.894l4.1-4.1 55.075 55.13c7.87 7.957 18.789 12.884 30.858 12.884s22.988-4.927 30.855-12.88l0.004-0.004c7.956-7.891 12.882-18.827 12.882-30.914s-4.926-23.023-12.879-30.911l-0.003-0.003zM355.715 443.323l-85.961-86.071c-7.896-7.911-18.813-12.806-30.872-12.806s-22.976 4.894-30.871 12.805l-34.955 35.038c-7.956 7.891-12.882 18.827-12.882 30.914s4.926 23.023 12.879 30.911l0.003 0.003c7.871 7.965 18.796 12.898 30.872 12.898s23.001-4.933 30.868-12.894l0.004-0.004 4.096-4.068 55.075 55.13c7.87 7.957 18.789 12.884 30.858 12.884s22.988-4.927 30.855-12.88l0.004-0.004c7.965-7.892 12.896-18.834 12.896-30.928s-4.931-23.035-12.893-30.924l-0.003-0.003zM355.715 704.443l-85.961-86.071c-7.905-7.894-18.805-12.792-30.849-12.841h-0.010c-11.070 0-22.445 4.373-30.886 12.842l-34.954 35.010c-7.965 7.892-12.896 18.834-12.896 30.928s4.931 23.035 12.893 30.924l0.003 0.003c7.871 7.965 18.796 12.898 30.872 12.898s23.001-4.933 30.868-12.894l4.1-4.1 55.075 55.158c7.87 7.957 18.789 12.884 30.858 12.884s22.988-4.927 30.855-12.88l0.004-0.004c7.965-7.892 12.896-18.834 12.896-30.928s-4.931-23.035-12.893-30.924l-0.003-0.003zM833.176 125.634h-334.433c-0.008 0-0.018 0-0.028 0-24.119 0-43.672 19.553-43.672 43.672 0 0.029 0 0.058 0 0.088v-0.005c0 24.216 19.511 43.755 43.728 43.755h334.405c24.189 0 43.728-19.539 43.728-43.755s-19.539-43.755-43.728-43.755zM833.176 385.287h-334.433c-0.008 0-0.018 0-0.028 0-24.119 0-43.672 19.553-43.672 43.672 0 0.019 0 0.039 0 0.058v-0.003c0 24.244 19.511 43.783 43.728 43.783h334.405c24.189 0 43.728-19.539 43.728-43.755s-19.539-43.755-43.728-43.755zM833.176 646.379h-334.433c-0.008 0-0.018 0-0.028 0-24.119 0-43.672 19.553-43.672 43.672 0 0.029 0 0.058 0 0.088v-0.005c0 24.216 19.511 43.755 43.728 43.755h334.405c24.189 0 43.728-19.539 43.728-43.728 0-24.244-19.539-43.783-43.728-43.783z" />
<glyph unicode="&#xe94b;" d="M102.4 960h819.2c54.623 0 102.4-47.777 102.4-102.4v-819.2c0-54.623-47.777-102.4-102.4-102.4h-819.2c-54.623 0-102.4 47.777-102.4 102.4v819.2c0 54.623 47.777 102.4 102.4 102.4z" />
<glyph unicode="&#xe94c;" d="M616.653 821.848h-159.481c-0.265 0.009-0.576 0.015-0.889 0.015-14.914 0-27.004-12.090-27.004-27.004s12.090-27.004 27.004-27.004c0.313 0 0.624 0.005 0.934 0.016l-0.045-0.001h159.481c14.527 0.493 26.116 12.388 26.116 26.99s-11.589 26.496-26.071 26.989l-0.045 0.001zM862.12 696.686h-404.948c-0.265 0.009-0.576 0.015-0.889 0.015-14.914 0-27.004-12.090-27.004-27.004s12.090-27.004 27.004-27.004c0.313 0 0.624 0.005 0.934 0.016l-0.045-0.001h404.948c14.527 0.493 26.116 12.388 26.116 26.99s-11.589 26.496-26.071 26.989l-0.045 0.001zM327.768 766.991c-1.383 4.26-4.763 7.515-9.006 8.697l-0.093 0.022-54.038 14.804-30.779 46.899c-4.915 7.402-17.32 7.402-22.235 0l-30.72-46.899-54.038-14.804c-4.348-1.196-7.739-4.452-9.102-8.626l-0.026-0.093c-0.428-1.227-0.675-2.642-0.675-4.114 0-3.114 1.105-5.969 2.945-8.195l-0.017 0.022 35.109-43.681-2.779-56.174c-0.006-0.149-0.010-0.323-0.010-0.499 0-4.41 2.183-8.311 5.528-10.68l0.041-0.027c3.569-2.633 8.192-3.306 12.434-1.726l52.429 19.807 52.458-19.807c1.411-0.54 3.042-0.878 4.744-0.936l0.025-0.001c2.633 0 5.413 0.936 7.636 2.633 3.387 2.396 5.571 6.297 5.571 10.709 0 0.195-0.004 0.39-0.013 0.583l0.001-0.028-2.779 56.144 35.138 43.739c1.82 2.207 2.924 5.065 2.924 8.18 0 1.47-0.246 2.883-0.699 4.199l0.027-0.091zM614.4 521.143h-146.286c-16.158 0-29.257-13.099-29.257-29.257s13.099-29.257 29.257-29.257v0h146.286c16.158 0 29.257 13.099 29.257 29.257s-13.099 29.257-29.257 29.257v0zM862.12 404.114h-404.948c-14.914 0-27.004-12.090-27.004-27.004s12.090-27.004 27.004-27.004v0h404.948c14.914 0 27.004 12.090 27.004 27.004s-12.090 27.004-27.004 27.004v0zM327.768 474.448c-1.392 4.248-4.769 7.491-9.006 8.667l-0.093 0.022-54.038 14.804-30.779 46.899c-4.915 7.402-17.32 7.402-22.235 0l-30.749-46.899-54.038-14.804c-4.342-1.19-7.731-4.435-9.102-8.596l-0.027-0.093c-0.428-1.227-0.675-2.642-0.675-4.114 0-3.114 1.105-5.969 2.945-8.195l-0.017 0.022 35.138-43.739-2.779-56.174c-0.006-0.149-0.010-0.323-0.010-0.499 0-4.41 2.183-8.311 5.528-10.68l0.041-0.027c3.569-2.633 8.192-3.306 12.434-1.726l52.429 19.807 52.458-19.807c1.413-0.53 3.045-0.859 4.748-0.907h0.021c2.633 0 5.413 0.907 7.636 2.633 3.386 2.396 5.569 6.297 5.569 10.708 0 0.185-0.004 0.37-0.011 0.553l0.001-0.026-2.779 56.144 35.138 43.71c1.82 2.207 2.924 5.065 2.924 8.18 0 1.47-0.246 2.883-0.699 4.199l0.027-0.091zM616.653 236.705h-159.481c-0.265 0.009-0.576 0.015-0.889 0.015-14.914 0-27.004-12.090-27.004-27.004s12.090-27.004 27.004-27.004c0.313 0 0.624 0.005 0.934 0.016l-0.045-0.001h159.481c0.265-0.009 0.576-0.015 0.889-0.015 14.914 0 27.004 12.090 27.004 27.004s-12.090 27.004-27.004 27.004c-0.313 0-0.624-0.005-0.934-0.016l0.045 0.001zM862.12 111.543h-404.948c-14.914 0-27.004-12.090-27.004-27.004s12.090-27.004 27.004-27.004v0h404.948c14.914 0 27.004 12.090 27.004 27.004s-12.090 27.004-27.004 27.004v0zM327.768 181.877c-1.392 4.248-4.769 7.491-9.006 8.667l-0.093 0.022-54.038 14.804-30.779 46.899c-4.915 7.402-17.32 7.402-22.235 0l-30.749-46.899-54.038-14.804c-4.342-1.19-7.731-4.435-9.102-8.596l-0.027-0.093c-0.428-1.227-0.675-2.642-0.675-4.114 0-3.114 1.105-5.969 2.945-8.195l-0.017 0.022 35.138-43.739-2.779-56.174c-0.006-0.149-0.010-0.323-0.010-0.499 0-4.41 2.183-8.311 5.528-10.68l0.041-0.027c3.569-2.633 8.192-3.306 12.434-1.726l52.429 19.807 52.458-19.807c1.413-0.53 3.045-0.859 4.748-0.907h0.021c2.633 0 5.413 0.907 7.636 2.633 3.386 2.396 5.569 6.297 5.569 10.708 0 0.185-0.004 0.37-0.011 0.553l0.001-0.026-2.779 56.144 35.138 43.71c1.82 2.207 2.924 5.065 2.924 8.18 0 1.47-0.246 2.883-0.699 4.199l0.027-0.091z" />
<glyph unicode="&#xe94d;" glyph-name="icon-group" d="M963.773 366.982c-33.381 33.959-78.423 56.362-128.631 60.713l-0.77 0.054c42.427 38.483 69.009 93.77 69.174 155.268v0.030c0 114.796-93.723 209.3-207.495 209.3-109.299 0-198.548-85.531-207.495-193.563 98.196-42.765 165.107-139.533 165.107-254.302 0-40.502-8.893-83.267-26.759-119.269 24.522-13.528 49.071-29.265 69.147-51.766 51.308-51.766 80.303-126.033 80.303-200.3v-4.5l-2.21-36.029h247.646l2.21 276.83c0 63.003-22.312 117.032-60.227 157.534zM517.578 189.183c42.427 38.483 69.009 93.77 69.174 155.268v0.030c0 114.796-93.696 209.3-207.495 209.3-113.772 0-207.468-94.531-207.468-209.3 0-60.766 26.786-117.032 69.174-155.298-107.089-9-194.102-99.005-194.102-209.3l-2.237-40.502h664.819l2.237 38.265c0 56.266-22.312 110.269-60.227 150.771-40.152 36.029-84.776 56.266-133.875 60.766zM133.848 711.315v-78.767c0-31.528 26.786-58.503 58.018-58.503s57.991 27.001 57.991 58.503v78.767h78.093c31.232 0 57.991 27.001 57.991 58.53 0 31.501-26.759 58.503-57.991 58.503h-78.093v76.531c0 31.501-26.732 58.503-57.991 58.503s-58.018-27.001-58.018-58.503v-76.531h-75.83c-31.259 0-58.018-27.001-58.018-58.503 0-31.528 26.759-58.53 58.018-58.53h75.83z" />
<glyph unicode="&#xe94e;" glyph-name="icon-timer" horiz-adv-x="840" d="M755.688 658.472l26.703 35.236c14.1 18.563 10.503 45.056-7.982 59.182l-68.739 52.539c-6.987 5.386-15.865 8.632-25.501 8.632-13.62 0-25.726-6.486-33.397-16.538l-0.075-0.102-26.729-35.131c45.527-22.924 84.515-51.406 118.131-85.231l0.023-0.023c6.223-6.118 11.999-12.235 17.592-18.563zM420 809.342c18.59 0 36.995-1.155 55.165-3.361v48.522h33.241c23.211 0 42.037 18.905 42.037 42.194v21.11c0 23.289-18.8 42.194-42.037 42.194h-176.837c-23.237 0-42.063-18.905-42.063-42.194v-21.11c0-23.316 18.826-42.194 42.063-42.194h33.214v-48.522c16.577 2.138 35.754 3.359 55.215 3.361h0.002zM420-63.999c232.028 0 420.103 188.731 420.103 421.573 0 105.813-38.781 202.463-102.925 276.427-37.22 42.827-82.295 77.738-133.133 102.716l-2.481 1.101c-52.759 26.010-114.852 41.224-180.499 41.224-0.374 0-0.748 0-1.122-0.001h0.058c-18.721 0-37.1-1.234-55.191-3.571-205.955-27.097-364.912-203.934-364.912-417.897 0-232.842 188.075-421.573 420.103-421.573zM535.738 651.094c55.18-22.328 101.040-57.957 135.065-103.022l0.576-0.796c30.421-40.11 51.636-88.82 59.599-141.867l0.213-1.729c2.206-15.071 3.361-30.589 3.361-46.316h-316.547v315.917h1.995c15.045 0 29.854-1.050 44.268-3.151 24.917-3.492 48.784-9.925 71.47-19.010z" />
<glyph unicode="&#xe94f;" glyph-name="icon-calendar" d="M921.6 960h-819.2c-54.623 0-102.4-47.777-102.4-102.4v-819.2c0-54.623 47.777-102.4 102.4-102.4h819.2c54.623 0 102.4 47.777 102.4 102.4v819.2c0 54.623-47.777 102.4-102.4 102.4zM276.48 58.88h-157.023v139.937h157.023v-139.937zM276.48 246.623h-157.023v139.937h157.023v-139.937zM266.24 806.4c-27.297 0-44.383 17.057-44.383 40.96s17.086 44.383 44.383 44.383c27.297 0 40.96-20.48 40.96-44.383s-17.057-40.96-40.96-40.96zM484.703 58.88h-157.023v139.937h157.023v-139.937zM484.703 246.623h-157.023v139.937h157.023v-139.937zM484.703 430.943h-157.023v139.937h157.023v-139.937zM467.617 847.36c0 23.903 20.48 44.383 44.383 44.383s44.383-20.48 44.383-44.383-20.48-40.96-44.383-40.96-44.383 17.057-44.383 40.96zM696.32 246.623h-157.023v139.937h157.023v-139.937zM696.32 430.943h-157.023v139.937h157.023v-139.937zM716.8 847.36c0 23.903 17.057 44.383 40.96 44.383s44.383-20.48 44.383-44.383-17.086-40.96-44.383-40.96c-27.297 0-40.96 17.057-40.96 40.96zM904.543 246.623h-157.023v139.937h157.023v-139.937zM904.543 430.943h-157.023v139.937h157.023v-139.937z" />
<glyph unicode="&#xe950;" glyph-name="icon-timetable" d="M340.411 662.21h343.234v297.79h-343.234v-297.79zM0 276.411h297.79v343.178h-297.79v-343.178zM340.411-64h343.234v297.79h-343.234v-297.79zM297.79 233.79v-297.79h-180.39c-0.066 0-0.144 0-0.222 0-64.716 0-117.179 52.463-117.179 117.179 0 0.078 0 0.156 0 0.234v-0.012 180.39h297.79zM726.21 662.21v297.79h180.418c0.008 0 0.018 0 0.028 0 64.808 0 117.345-52.537 117.345-117.345 0-0.019 0-0.039 0-0.058v0.003-180.418h-297.79zM726.21 233.79h297.79v-180.39c0-0.058 0-0.126 0-0.194 0-64.731-52.475-117.206-117.206-117.206-0.049 0-0.098 0-0.146 0h-180.438v297.79zM340.411 276.411v343.178h343.234v-343.178h-343.234zM588.025 478.803c5.835 5.759 9.449 13.756 9.449 22.597s-3.614 16.838-9.446 22.594l-0.003 0.003c-5.784 5.781-13.773 9.357-22.597 9.357s-16.813-3.576-22.597-9.357l-30.803-30.803-30.803 30.803c-5.784 5.781-13.773 9.357-22.597 9.357s-16.813-3.576-22.597-9.357v0c-5.835-5.759-9.449-13.756-9.449-22.597s3.614-16.838 9.446-22.594l30.806-30.806-30.803-30.803c-5.835-5.759-9.449-13.756-9.449-22.597s3.614-16.838 9.446-22.594l0.003-0.003c5.781-5.788 13.771-9.368 22.597-9.368s16.816 3.58 22.597 9.368v0l30.803 30.803 30.803-30.803c5.759-5.835 13.756-9.449 22.597-9.449s16.838 3.614 22.594 9.446l0.003 0.003c5.788 5.781 9.368 13.771 9.368 22.597s-3.58 16.816-9.368 22.597v0l-30.803 30.803 30.803 30.803zM726.21 276.411v343.178h297.79v-343.178h-297.79zM950.604 478.803c5.835 5.759 9.449 13.756 9.449 22.597s-3.614 16.838-9.446 22.594l-0.003 0.003c-5.784 5.781-13.773 9.357-22.597 9.357s-16.813-3.576-22.597-9.357l-30.803-30.803-30.582 30.803c-5.785 5.789-13.78 9.371-22.611 9.371s-16.826-3.581-22.611-9.37v0c-5.835-5.759-9.449-13.756-9.449-22.597s3.614-16.838 9.446-22.594l30.806-30.806-30.803-30.803c-5.835-5.759-9.449-13.756-9.449-22.597s3.614-16.838 9.446-22.594l0.003-0.003c5.782-5.796 13.778-9.382 22.611-9.382s16.829 3.586 22.61 9.381l30.804 30.804 30.775-30.803c5.76-5.843 13.763-9.463 22.611-9.463s16.851 3.62 22.607 9.46l0.004 0.004c5.835 5.759 9.449 13.756 9.449 22.597s-3.614 16.838-9.446 22.594l-30.806 30.806 30.582 30.803zM0 662.21v180.362c0 0.066 0 0.144 0 0.222 0 64.731 52.475 117.206 117.206 117.206 0.068 0 0.136 0 0.205 0h180.379v-297.79h-297.79zM225.197 841.382c5.843 5.76 9.463 13.763 9.463 22.611s-3.62 16.851-9.46 22.607l-0.004 0.004c-5.784 5.781-13.773 9.357-22.597 9.357s-16.813-3.576-22.597-9.357l-30.609-30.609-30.803 30.803c-5.83 6.092-14.027 9.879-23.108 9.879-17.654 0-31.965-14.311-31.965-31.965 0-9.081 3.787-17.277 9.867-23.097l0.012-0.011 30.803-30.803-30.803-30.803c-5.835-5.759-9.449-13.756-9.449-22.597s3.614-16.838 9.446-22.594l0.003-0.003c5.759-5.835 13.756-9.449 22.597-9.449s16.838 3.614 22.594 9.446l30.806 30.806 30.609-30.997c5.759-5.835 13.756-9.449 22.597-9.449s16.838 3.614 22.594 9.446l0.003 0.003c5.835 5.759 9.449 13.756 9.449 22.597s-3.614 16.838-9.446 22.594l-30.806 30.806 30.803 30.775z" />
</font>
</defs>
</svg>
